<?xml version="1.0" encoding="utf-8"?>
<!-- Generator: Adobe Illustrator 24.1.0, SVG Export Plug-In . SVG Version: 6.00 Build 0)  -->
<svg version="1.1" xmlns="http://www.w3.org/2000/svg" xmlns:xlink="http://www.w3.org/1999/xlink" x="0px" y="0px"
	 viewBox="0 0 362.4 76.1" style="enable-background:new 0 0 362.4 76.1;" xml:space="preserve">
<style type="text/css">
	.st0{display:none;fill:#E3E3E3;}
	.st1{fill:#D9DBDB;}
	.st2{fill:#CB082E;}
	.st3{fill:#FFFFFF;}
	.st4{fill:#055D86;}
	.st5{display:none;}
	.st6{display:inline;}
</style>
<g id="dsgn">
	<rect x="-3.3" y="-5.5" class="st0" width="368.5" height="85"/>
	<g>
		<path class="st1" d="M306.1,30.4c-0.1-0.3-0.2-0.7-0.4-0.9c-0.2-0.3-0.5-0.5-0.8-0.6c-0.3-0.2-0.7-0.2-1.1-0.2
			c-0.8,0-1.5,0.3-1.9,0.8c-0.5,0.5-0.7,1.2-0.8,2.1h5.2C306.3,31.1,306.2,30.7,306.1,30.4z"/>
		<path class="st1" d="M37.2,75.5h0.1C37.3,75.5,37.2,75.5,37.2,75.5L37.2,75.5z"/>
		<path class="st1" d="M325.8,0.8H37.4c0.1,0,0.3,0,0.4,0h143.6c20.6,0,37.3,16.7,37.3,37.3c0,20.6-16.6,37.2-37.2,37.3h144.1
			c0,0,0,0,0.1,0c19.9,0,36.1-16.6,36.1-37.2C361.9,17.6,345.7,0.8,325.8,0.8z M309.3,23.8c0.1,0,0.2,0,0.3,0c0.1,0,0.2,0,0.3,0
			c0.1,0,0.2,0,0.3,0c0.1,0,0.2,0,0.3,0v10.8c0,0.3,0,0.5,0.1,0.7c0.1,0.2,0.2,0.3,0.3,0.4c0.1,0.1,0.2,0.1,0.3,0.1
			c0.1,0,0.2,0,0.3,0c0.1,0,0.3,0,0.4,0c0.1,0,0.3,0,0.3-0.1c0.1,0.1,0.1,0.3,0.1,0.5c0,0.2,0,0.3,0.1,0.5c-0.2,0.1-0.3,0.1-0.6,0.1
			c-0.2,0-0.4,0-0.6,0c-0.2,0-0.5,0-0.7-0.1c-0.2-0.1-0.5-0.2-0.7-0.3c-0.2-0.1-0.3-0.3-0.5-0.6c-0.1-0.3-0.2-0.6-0.2-1V23.8z
			 M300,30.5c0.2-0.6,0.4-1.1,0.7-1.5c0.3-0.4,0.7-0.8,1.2-1c0.5-0.2,1.1-0.4,1.8-0.4c0.6,0,1.1,0.1,1.6,0.3
			c0.5,0.2,0.8,0.5,1.1,0.8c0.3,0.4,0.5,0.8,0.7,1.3c0.2,0.5,0.2,1,0.2,1.6c0,0.1,0,0.2,0,0.4c0,0.2,0,0.3,0,0.4H301
			c0,1.2,0.3,2.1,0.8,2.6c0.5,0.6,1.4,0.8,2.5,0.8c0.4,0,0.9,0,1.2-0.1c0.4-0.1,0.7-0.2,1.1-0.3c0.1,0.1,0.1,0.3,0.1,0.5
			c0,0.2,0.1,0.4,0.1,0.5c-0.3,0.2-0.7,0.3-1.2,0.3c-0.5,0.1-1,0.1-1.5,0.1c-0.8,0-1.4-0.1-2-0.3c-0.6-0.2-1-0.5-1.4-1
			c-0.4-0.4-0.6-0.9-0.8-1.5c-0.2-0.6-0.3-1.2-0.3-1.9C299.8,31.6,299.9,31,300,30.5z M287.4,27.8c0.1,0,0.2,0,0.3,0
			c0.1,0,0.2,0,0.3,0c0.1,0,0.2,0,0.3,0c0.1,0,0.2,0,0.3,0c0,0.2,0,0.5,0.1,0.7c0,0.3,0,0.5,0,0.8c0.2-0.4,0.6-0.8,1-1.1
			c0.4-0.3,1-0.4,1.7-0.4h0.2c0.1,0,0.1,0,0.2,0c0,0.2,0.1,0.4,0.1,0.6c0,0.2,0,0.4-0.1,0.5c-0.1,0-0.2,0-0.2,0h-0.2
			c-0.8,0-1.4,0.3-1.9,0.8c-0.5,0.5-0.7,1.3-0.7,2.5v4.6c-0.1,0-0.2,0-0.3,0c-0.1,0-0.2,0-0.3,0c-0.1,0-0.2,0-0.3,0
			c-0.1,0-0.2,0-0.3,0V27.8z M278.7,32.9c0.2-0.4,0.4-0.7,0.8-0.9c0.3-0.3,0.7-0.4,1.2-0.6c0.4-0.1,0.9-0.2,1.5-0.2
			c0.4,0,0.8,0,1.1,0c0.3,0,0.6,0.1,0.8,0.1v-0.5c0-0.8-0.2-1.3-0.5-1.7c-0.4-0.4-0.9-0.5-1.6-0.5c-0.5,0-0.9,0-1.3,0.1
			c-0.4,0.1-0.7,0.1-1,0.2c-0.1-0.1-0.1-0.3-0.2-0.5c0-0.2-0.1-0.4-0.1-0.6c0.3-0.1,0.7-0.2,1.1-0.2c0.4-0.1,0.9-0.1,1.4-0.1
			c1.1,0,2,0.2,2.5,0.7c0.5,0.5,0.8,1.3,0.8,2.3v5.9c-0.4,0.1-0.9,0.2-1.5,0.2c-0.6,0.1-1.1,0.1-1.7,0.1c-1.1,0-1.9-0.2-2.6-0.6
			c-0.6-0.4-0.9-1.1-0.9-2.1C278.4,33.7,278.5,33.3,278.7,32.9z M269.4,24.1c0.1,0,0.3,0,0.5-0.1c0.2,0,0.4,0,0.7-0.1
			c0.2,0,0.5,0,0.7-0.1c0.2,0,0.5,0,0.7,0c1.4,0,2.4,0.3,3.2,0.8c0.7,0.5,1.1,1.4,1.1,2.5c0,0.4-0.1,0.7-0.2,1
			c-0.1,0.3-0.3,0.6-0.4,0.8c-0.2,0.2-0.4,0.4-0.7,0.6c-0.3,0.2-0.5,0.3-0.8,0.4c0.4,0,0.7,0.1,1,0.3c0.3,0.1,0.6,0.3,0.9,0.6
			c0.3,0.3,0.5,0.6,0.6,1c0.2,0.4,0.2,0.9,0.2,1.4c0,0.6-0.1,1.2-0.4,1.6c-0.3,0.5-0.6,0.8-1,1.1c-0.5,0.3-1,0.5-1.6,0.7
			c-0.6,0.1-1.3,0.2-2,0.2c-0.2,0-0.4,0-0.6,0c-0.2,0-0.5,0-0.7,0c-0.2,0-0.5,0-0.7-0.1c-0.2,0-0.4-0.1-0.6-0.1V24.1z M247.1,27.6
			l3.6,13.1h-7.4L247.1,27.6z M231.9,38.1c0-7.1,4.7-13,11.2-14.8l-7.7,24.5C233.2,45.1,231.9,41.8,231.9,38.1z M247.3,53.5
			c-2.5,0-4.9-0.6-7.1-1.7l1.7-5.9h10.3l1.7,6.1C251.9,52.9,249.7,53.5,247.3,53.5z M259.2,47.8l-7.7-24.5
			c6.4,1.9,11.1,7.8,11.1,14.8C262.7,41.8,261.4,45.1,259.2,47.8z M277.1,52.4c-0.4,0-0.9,0-1.3-0.1l-0.7-2.5H271l-0.7,2.5
			c-0.4,0.1-0.8,0.1-1.2,0.1c-0.4,0-0.9,0-1.3-0.1l4-12.6c0.2,0,0.5-0.1,0.7-0.1c0.2,0,0.5,0,0.7,0c0.2,0,0.5,0,0.7,0
			c0.2,0,0.5,0,0.7,0.1l3.9,12.6C278,52.4,277.6,52.4,277.1,52.4z M284.6,52.5c-0.4,0-0.8,0.1-1.3,0.1c-0.8,0-1.4-0.1-2-0.4
			c-0.6-0.2-1-0.6-1.4-1c-0.4-0.4-0.6-0.9-0.8-1.5c-0.2-0.6-0.3-1.2-0.3-1.9c0-0.7,0.1-1.3,0.3-1.9c0.2-0.6,0.5-1.1,0.8-1.5
			c0.4-0.4,0.8-0.8,1.4-1c0.5-0.2,1.2-0.4,1.9-0.4c0.3,0,0.5,0,0.7,0c0.2,0,0.4,0,0.6,0.1c0.2,0,0.4,0.1,0.6,0.1
			c0.2,0.1,0.4,0.1,0.7,0.2c0,0.3,0,0.6-0.1,0.9c-0.1,0.3-0.2,0.6-0.3,1c-0.3-0.1-0.7-0.2-0.9-0.2c-0.3,0-0.6-0.1-0.9-0.1
			c-0.7,0-1.3,0.2-1.6,0.7c-0.4,0.5-0.6,1.1-0.6,2c0,0.9,0.2,1.6,0.6,2.1c0.4,0.4,0.9,0.6,1.6,0.6c0.2,0,0.3,0,0.5,0
			c0.1,0,0.3,0,0.4,0c0.1,0,0.3-0.1,0.4-0.1c0.1,0,0.3-0.1,0.5-0.2c0.1,0.2,0.3,0.5,0.4,0.8c0.1,0.3,0.1,0.7,0.1,1.1
			C285.4,52.3,285,52.4,284.6,52.5z M292.6,52c0,0.1,0,0.2,0,0.3c-0.5,0.1-1.1,0.2-1.7,0.2c-1.1,0-1.9-0.2-2.4-0.7
			c-0.6-0.5-0.8-1.3-0.8-2.4v-4.1h-1.1l-0.1-0.4l3.3-4.2h0.4v2.6h2.1c0,0.2,0.1,0.3,0.1,0.5c0,0.1,0,0.3,0,0.4c0,0.2,0,0.3,0,0.5
			c0,0.2,0,0.3-0.1,0.5h-2.1v3.6c0,0.4,0,0.6,0.1,0.9c0.1,0.2,0.1,0.4,0.3,0.5c0.1,0.1,0.2,0.2,0.4,0.3c0.2,0,0.4,0.1,0.6,0.1
			c0.2,0,0.3,0,0.5,0c0.2,0,0.3-0.1,0.4-0.1c0.1,0.2,0.1,0.5,0.2,0.7c0,0.2,0,0.5,0,0.6C292.6,51.8,292.6,51.9,292.6,52z
			 M296.8,52.3c-0.4,0.1-0.8,0.1-1.2,0.1c-0.4,0-0.8,0-1.2-0.1v-7.2h-1.2c0-0.2-0.1-0.3-0.1-0.5c0-0.2,0-0.3,0-0.5
			c0-0.3,0-0.6,0.1-0.9h3.6V52.3z M293.9,40.6c0-0.4,0-0.8,0.1-1.2c0.2,0,0.4-0.1,0.6-0.1c0.2,0,0.4,0,0.6,0c0.2,0,0.4,0,0.6,0
			c0.2,0,0.4,0,0.6,0.1c0,0.2,0.1,0.4,0.1,0.6c0,0.2,0,0.4,0,0.6c0,0.2,0,0.4,0,0.6s0,0.4-0.1,0.6c-0.2,0-0.4,0.1-0.6,0.1
			c-0.2,0-0.4,0-0.6,0c-0.2,0-0.4,0-0.6,0c-0.2,0-0.4,0-0.6-0.1C293.9,41.4,293.9,41,293.9,40.6z M293.5,35.7
			c-0.8-0.8-1.1-2-1.1-3.5c0-0.7,0.1-1.3,0.3-1.8c0.2-0.6,0.5-1.1,0.8-1.5c0.4-0.4,0.8-0.7,1.4-1c0.5-0.2,1.2-0.4,1.9-0.4
			c0.4,0,0.9,0,1.3,0.1c0.4,0.1,0.7,0.1,1,0.2c0,0.2,0,0.3-0.1,0.5c0,0.2-0.1,0.4-0.1,0.5c-0.2-0.1-0.5-0.2-0.9-0.2
			c-0.4-0.1-0.7-0.1-1.1-0.1c-0.5,0-1,0.1-1.4,0.3c-0.4,0.2-0.7,0.4-1,0.8c-0.3,0.3-0.5,0.7-0.6,1.2c-0.1,0.4-0.2,0.9-0.2,1.5
			c0,1.3,0.3,2.2,0.9,2.8c0.6,0.6,1.4,0.9,2.4,0.9c0.3,0,0.7,0,1-0.1c0.3-0.1,0.6-0.1,0.9-0.2c0.1,0.1,0.1,0.3,0.2,0.5
			c0.1,0.2,0.1,0.4,0.1,0.5c-0.3,0.1-0.6,0.2-1,0.3c-0.4,0.1-0.8,0.1-1.2,0.1C295.3,36.9,294.2,36.5,293.5,35.7z M303.6,52.3
			c-0.2,0-0.5,0.1-0.7,0.1c-0.2,0-0.4,0-0.6,0c-0.2,0-0.4,0-0.6,0c-0.2,0-0.4,0-0.6-0.1l-3.4-9c0.3-0.1,0.5-0.1,0.8-0.1
			c0.2,0,0.4,0,0.6,0c0.2,0,0.5,0,0.7,0c0.2,0,0.4,0,0.7,0.1l2,6.7l1.9-6.7c0.2,0,0.4-0.1,0.6-0.1c0.2,0,0.4,0,0.7,0
			c0.2,0,0.4,0,0.6,0c0.2,0,0.5,0,0.8,0.1L303.6,52.3z M314.8,52c-0.4,0.1-0.9,0.3-1.5,0.4c-0.6,0.1-1.2,0.2-2,0.2
			c-0.6,0-1.1-0.1-1.6-0.2c-0.5-0.1-0.9-0.3-1.3-0.5c-0.4-0.2-0.6-0.6-0.8-0.9c-0.2-0.4-0.3-0.9-0.3-1.4c0-0.6,0.1-1,0.4-1.4
			c0.2-0.4,0.5-0.7,0.9-0.9c0.4-0.2,0.8-0.4,1.3-0.5c0.5-0.1,0.9-0.1,1.4-0.1c0.3,0,0.7,0,1.1,0.1v-0.2c0-0.3,0-0.5-0.1-0.7
			c-0.1-0.2-0.2-0.3-0.4-0.4c-0.2-0.1-0.4-0.2-0.6-0.2c-0.2,0-0.5-0.1-0.8-0.1c-0.6,0-1.3,0.1-2,0.4c-0.2-0.3-0.3-0.6-0.4-0.9
			c-0.1-0.3-0.1-0.6-0.1-1c0.5-0.2,1-0.3,1.5-0.4c0.5-0.1,1-0.1,1.4-0.1c1.2,0,2.2,0.3,2.8,0.9c0.7,0.6,1,1.5,1,2.8V52z M320.7,34.1
			c-0.2,0.6-0.4,1.1-0.8,1.5c-0.3,0.4-0.7,0.7-1.2,1c-0.5,0.2-1.1,0.4-1.7,0.4c-0.7,0-1.2-0.1-1.8-0.4c-0.5-0.2-0.9-0.6-1.3-1
			c-0.3-0.4-0.6-0.9-0.7-1.5c-0.2-0.6-0.2-1.2-0.2-1.8c0-0.7,0.1-1.3,0.2-1.8c0.2-0.6,0.4-1.1,0.7-1.5c0.3-0.4,0.8-0.7,1.3-1
			c0.5-0.2,1.1-0.4,1.8-0.4c0.7,0,1.2,0.1,1.7,0.4c0.5,0.2,0.9,0.6,1.2,1c0.3,0.4,0.6,0.9,0.8,1.5c0.2,0.6,0.3,1.2,0.3,1.8
			C321,32.9,320.9,33.5,320.7,34.1z M330,36.7c-0.1,0-0.2,0-0.3,0c-0.1,0-0.2,0-0.3,0c-0.1,0-0.2,0-0.3,0c-0.1,0-0.2,0-0.3,0v-5.3
			c0-1-0.2-1.7-0.5-2.1c-0.3-0.4-0.8-0.6-1.4-0.6c-0.4,0-0.8,0.1-1.2,0.2c-0.4,0.2-0.7,0.4-0.9,0.7c-0.3,0.3-0.5,0.7-0.6,1.1
			c-0.2,0.5-0.2,1-0.2,1.6v4.4c-0.1,0-0.2,0-0.3,0c-0.1,0-0.2,0-0.3,0c-0.1,0-0.2,0-0.3,0c-0.1,0-0.2,0-0.3,0v-8.9
			c0.1,0,0.2,0,0.3,0c0.1,0,0.2,0,0.3,0c0.1,0,0.2,0,0.3,0c0.1,0,0.2,0,0.3,0c0,0.2,0,0.5,0.1,0.8c0,0.3,0,0.6,0,0.8
			c0.1-0.2,0.3-0.4,0.5-0.6c0.2-0.2,0.4-0.4,0.7-0.6c0.2-0.2,0.5-0.3,0.9-0.4c0.3-0.1,0.7-0.2,1.1-0.2c1,0,1.8,0.3,2.2,0.9
			c0.5,0.6,0.7,1.5,0.7,2.6V36.7z M338.4,36.6c-0.4,0.1-0.9,0.2-1.5,0.2c-0.6,0.1-1.1,0.1-1.7,0.1c-1.1,0-1.9-0.2-2.6-0.6
			c-0.6-0.4-0.9-1.1-0.9-2.1c0-0.5,0.1-0.9,0.3-1.3c0.2-0.4,0.4-0.7,0.8-0.9c0.3-0.3,0.7-0.4,1.2-0.6c0.4-0.1,0.9-0.2,1.5-0.2
			c0.4,0,0.8,0,1.1,0c0.3,0,0.6,0.1,0.8,0.1v-0.5c0-0.8-0.2-1.3-0.5-1.7c-0.4-0.4-0.9-0.5-1.6-0.5c-0.5,0-0.9,0-1.3,0.1
			c-0.4,0.1-0.7,0.1-1,0.2c-0.1-0.1-0.1-0.3-0.1-0.5s-0.1-0.4-0.1-0.6c0.3-0.1,0.7-0.2,1.1-0.2c0.4-0.1,0.9-0.1,1.4-0.1
			c1.1,0,2,0.2,2.5,0.7c0.5,0.5,0.8,1.3,0.8,2.3V36.6z"/>
		<polygon class="st1" points="271.6,47.7 274.5,47.7 273.1,42.4 		"/>
		<path class="st1" d="M37.2,0.8L37.2,0.8c0.1,0,0.1,0,0.2,0H37.2z"/>
		<path class="st1" d="M311.5,48.1c-0.6,0-1,0.1-1.4,0.3c-0.3,0.2-0.5,0.5-0.5,1c0,0.3,0.1,0.5,0.2,0.7c0.1,0.2,0.3,0.3,0.5,0.4
			c0.2,0.1,0.4,0.1,0.6,0.1c0.2,0,0.4,0,0.5,0c0.2,0,0.3,0,0.5,0c0.2,0,0.3-0.1,0.5-0.1v-2.3c-0.1,0-0.3,0-0.5-0.1
			C311.8,48.1,311.6,48.1,311.5,48.1z"/>
		<path class="st1" d="M274.3,28.9c0.4-0.4,0.7-1,0.7-1.6c0-0.6-0.2-1.2-0.7-1.6c-0.5-0.4-1.2-0.6-2.2-0.6c-0.3,0-0.6,0-0.9,0
			c-0.3,0-0.5,0-0.7,0.1v4.4h1.7C273.2,29.5,273.9,29.3,274.3,28.9z"/>
		<path class="st1" d="M335.6,32.2c-0.9,0-1.6,0.2-2,0.5c-0.5,0.3-0.7,0.8-0.7,1.4c0,0.4,0.1,0.7,0.2,0.9c0.1,0.2,0.3,0.4,0.6,0.5
			c0.2,0.1,0.5,0.2,0.8,0.2c0.3,0,0.6,0.1,0.8,0.1c0.4,0,0.7,0,1-0.1c0.3,0,0.6-0.1,0.9-0.1v-3.3c-0.2,0-0.4-0.1-0.7-0.1
			C336.2,32.3,335.9,32.2,335.6,32.2z"/>
		<path class="st1" d="M280.4,35.6c0.2,0.1,0.5,0.2,0.8,0.2c0.3,0,0.6,0.1,0.8,0.1c0.4,0,0.7,0,1-0.1c0.3,0,0.6-0.1,0.9-0.1v-3.3
			c-0.2,0-0.4-0.1-0.7-0.1c-0.3,0-0.6,0-0.8,0c-0.9,0-1.6,0.2-2,0.5c-0.5,0.3-0.7,0.8-0.7,1.4c0,0.4,0.1,0.7,0.2,0.9
			C280,35.3,280.1,35.5,280.4,35.6z"/>
		<path class="st1" d="M317,28.6c-0.9,0-1.6,0.3-2.1,1c-0.5,0.7-0.7,1.5-0.7,2.7c0,1.1,0.2,2,0.7,2.7c0.5,0.7,1.2,1,2.1,1
			c0.9,0,1.6-0.3,2.1-1c0.5-0.7,0.7-1.5,0.7-2.7c0-1.1-0.2-2-0.7-2.7C318.6,28.9,317.9,28.6,317,28.6z"/>
		<path class="st1" d="M272.1,35.8c0.5,0,0.9,0,1.3-0.1c0.4-0.1,0.8-0.2,1.2-0.4c0.3-0.2,0.6-0.5,0.8-0.8c0.2-0.3,0.3-0.7,0.3-1.2
			c0-0.5-0.1-0.9-0.3-1.2c-0.2-0.3-0.4-0.6-0.7-0.8c-0.3-0.2-0.7-0.4-1.1-0.5c-0.4-0.1-0.8-0.1-1.3-0.1h-1.8v5.1
			c0.2,0,0.4,0,0.7,0.1C271.5,35.8,271.8,35.8,272.1,35.8z"/>
		<path class="st1" d="M179,23.6c-0.6,0-1,0.3-1.3,0.7c-0.4,0.5-0.5,1.3-0.5,2c0,0.7,0.1,1.5,0.5,2c0.3,0.4,0.7,0.7,1.3,0.7
			c1.6,0,1.9-1.5,1.9-2.7C180.9,25.1,180.6,23.6,179,23.6z"/>
		<path class="st1" d="M160.5,42.8c-0.8,0-1.4,0.3-1.8,0.7c-0.7,0.7-0.8,1.8-0.8,2.9c0,1.1,0.2,2.2,0.8,2.9c0.4,0.4,1,0.7,1.8,0.7
			c0.8,0,1.4-0.3,1.8-0.7c0.7-0.7,0.8-1.8,0.8-2.9c0-1.1-0.2-2.2-0.8-2.9C161.8,43.2,161.2,42.8,160.5,42.8z"/>
		<path class="st1" d="M183.4,48.9c0,0.9,0.8,1.4,1.6,1.4c1.7,0,2.9-0.9,2.9-2.6v-0.5l-2.9,0.2C184.2,47.4,183.4,47.9,183.4,48.9z"
			/>
		<path class="st1" d="M218.8,38.2c0-20.6-16.7-37.3-37.3-37.3H37.9c20.4,0.2,36.9,16.8,36.9,37.3c0,20.6-16.7,37.3-37.3,37.3h143.9
			h0.2C202.1,75.4,218.8,58.7,218.8,38.2z M185.1,23c0.6-0.6,1.5-1,2.6-1c1.2,0,2.3,0.5,3,1.5c0.6,0.9,0.7,1.8,0.7,2.9
			c0,0,0,0.4,0,0.6h-5.5c0,0.6,0.2,1.2,0.6,1.6c0.3,0.3,0.7,0.5,1.2,0.5c0.6,0,0.9-0.1,1.2-0.4c0.2-0.2,0.3-0.4,0.4-0.7h1.9
			c0,0.5-0.4,1.1-0.7,1.5c-0.7,0.8-1.7,1.2-2.8,1.2c-1.1,0-2-0.4-2.6-1c-0.8-0.8-1.3-2-1.3-3.3C183.9,25,184.3,23.8,185.1,23z
			 M157.6,22.1h1.7l0.1,1.1c0.5-0.9,1.5-1.3,2.4-1.3c1.8,0,2.8,1.2,2.8,3v5.5h-2v-5.1c0-1-0.3-1.6-1.4-1.6c-0.7,0-1.2,0.4-1.4,1.1
			c-0.3,0.7-0.3,1.5-0.3,2.2v3.4h-2V22.1z M120.8,22.1h1.5V20l2-0.5v2.6h2.1v1.6h-2.1v4c0,0.6,0.3,0.9,0.9,0.9c0.4,0,0.7,0,1.3-0.1
			v1.7c-0.6,0.1-1.1,0.2-1.7,0.2c-1.7,0-2.5-1-2.5-2.5v-4.2h-1.5V22.1z M104.2,22.1h2v5.1c0,1,0.4,1.6,1.4,1.6c0.5,0,0.8-0.2,1-0.4
			c0.5-0.4,0.6-1.2,0.6-1.9v-4.4h2v8.3h-1.7l-0.1-1.1c-0.4,0.8-1.3,1.3-2.4,1.3c-1.8,0-2.9-1.2-2.9-3V22.1z M93.4,19.1h2.2l4,11.3
			h-2.1l-0.7-2.2h-4.5l-0.7,2.2h-2.1L93.4,19.1z M100.2,51.2c-1.2,0.9-2.7,1.1-4.2,1.1h-6.3V36.5H96c1.3,0,2.6,0.2,3.6,0.9
			c1.2,0.8,1.8,2.1,1.8,3.4c0,1.3-0.6,2.7-1.9,3.3c1.5,0.7,2.3,2.1,2.3,3.5C101.8,49.1,101.3,50.3,100.2,51.2z M102.5,31.6
			c0,1.4-0.8,2.3-2.3,2.3c-0.2,0-0.4,0-0.7,0c-0.3,0-0.5-0.1-0.9-0.2V32c0.6,0.1,0.7,0.1,1,0.1c0.6,0,1-0.3,1-0.9v-9h2V31.6z
			 M102.5,21h-2.1v-2.1h2.1V21z M114.4,52.1c-0.5,0.2-0.7,0.3-1.4,0.3c-1.2,0-1.9-0.8-1.9-1.6c-0.5,0.9-1.9,1.7-3.5,1.7
			c-2.8,0-4.2-1.7-4.2-3.6c0-2.2,1.7-3.5,3.9-3.6l3.4-0.2v-0.7c0-1.1-0.4-1.8-2-1.8c-1.3,0-2,0.6-2.1,1.6H104
			c0.2-2.6,2.2-3.7,4.8-3.7c2,0,3.7,0.6,4.3,2.3c0.3,0.7,0.3,1.6,0.3,2.3v4.3c0,0.5,0.2,0.7,0.6,0.7c0.2,0,0.4,0,0.4,0V52.1z
			 M115.4,24.8c-0.3,0.7-0.3,1.5-0.3,2.2v3.4h-2v-8.3h1.7l0.1,1.1c0.5-0.9,1.5-1.3,2.4-1.3c1.8,0,2.8,1.2,2.8,3v5.5h-2v-5.1
			c0-1-0.3-1.6-1.4-1.6C116.1,23.8,115.6,24.2,115.4,24.8z M123.5,43.3c-0.3-0.1-0.6-0.1-1-0.1c-2,0-3,1.4-3,3.3v5.8h-2.8V40.7h2.4
			l0.2,1.7c0.5-1.3,1.9-1.9,3.3-1.9c0.3,0,0.6,0,0.9,0.1V43.3z M128,49.4c0.4,0.4,0.9,0.7,1.7,0.7c0.8,0,1.4-0.4,1.8-0.9
			c0.2-0.3,0.3-0.6,0.3-1.1h2.7c0,0.9-0.4,1.8-0.9,2.5c-0.8,1-2.2,1.8-3.9,1.8c-1.8,0-3.2-0.8-4-1.8c-0.9-1.1-1.3-2.5-1.3-4.2
			c0-1.7,0.4-3.1,1.3-4.2c0.8-1,2.3-1.8,4-1.8c1.8,0,3.2,0.8,3.9,1.8c0.5,0.7,0.8,1.6,0.9,2.5h-2.7c0-0.4-0.2-0.8-0.3-1.1
			c-0.3-0.5-0.9-0.9-1.8-0.9c-0.8,0-1.3,0.3-1.7,0.7c-0.7,0.7-0.8,1.8-0.8,2.9C127.2,47.5,127.3,48.6,128,49.4z M134.8,30.3
			c-0.3,0.1-0.5,0.2-1,0.2c-0.9,0-1.3-0.5-1.4-1.2c-0.4,0.7-1.3,1.2-2.5,1.2c-2,0-3-1.2-3-2.6c0-1.6,1.2-2.5,2.8-2.6l2.4-0.2v-0.5
			c0-0.8-0.3-1.3-1.4-1.3c-0.9,0-1.5,0.4-1.5,1.2h-1.9c0.1-1.9,1.6-2.7,3.4-2.7c1.4,0,2.6,0.4,3.1,1.7c0.2,0.5,0.2,1.1,0.2,1.7v3.1
			c0,0.4,0.1,0.5,0.5,0.5c0.1,0,0.3,0,0.3,0V30.3z M146.7,46.6c0,0,0,0.5,0,0.8H139c0,0.9,0.3,1.7,0.8,2.3c0.4,0.4,1,0.7,1.7,0.7
			c0.8,0,1.3-0.2,1.7-0.6c0.2-0.2,0.4-0.6,0.6-1h2.7c-0.1,0.7-0.5,1.6-1,2.1c-1,1.2-2.4,1.6-3.9,1.6c-1.6,0-2.7-0.6-3.6-1.4
			c-1.2-1.1-1.8-2.7-1.8-4.6c0-1.8,0.6-3.5,1.7-4.6c0.9-0.9,2.1-1.5,3.7-1.5c1.7,0,3.3,0.7,4.2,2.1
			C146.5,43.8,146.7,45.1,146.7,46.6z M147.6,30.4h-2v-5.1c0-1-0.3-1.6-1.3-1.6c-1.1,0-1.6,1.2-1.6,2.2v4.5h-2v-5.1
			c0-1-0.3-1.6-1.3-1.6c-1.1,0-1.6,1.2-1.6,2.2v4.5h-2v-8.3h1.7l0.2,1.1c0.5-0.8,1.3-1.3,2.4-1.3c1.2,0,2,0.5,2.4,1.3
			c0.5-0.9,1.4-1.3,2.5-1.3c1.8,0,2.7,1.2,2.7,2.9V30.4z M150,23c0.6-0.6,1.5-1,2.6-1c1.2,0,2.3,0.5,3,1.5c0.6,0.9,0.7,1.8,0.7,2.9
			c0,0,0,0.4,0,0.6h-5.5c0,0.6,0.2,1.2,0.6,1.6c0.3,0.3,0.7,0.5,1.2,0.5c0.6,0,0.9-0.1,1.2-0.4c0.2-0.2,0.3-0.4,0.4-0.7h1.9
			c0,0.5-0.4,1.1-0.7,1.5c-0.7,0.8-1.7,1.2-2.8,1.2c-1.1,0-2-0.4-2.6-1c-0.8-0.8-1.3-2-1.3-3.3C148.8,25,149.2,23.8,150,23z
			 M153.6,52.2c-0.6,0.1-0.7,0.2-1.2,0.2c-1.9,0-3.1-0.9-3.1-3.1V36.2h2.8v12.6c0,0.7,0.2,1.1,1.1,1.1c0.2,0,0.3,0,0.5,0V52.2z
			 M164.5,50.7c-0.8,1-2.3,1.8-4,1.8c-1.8,0-3.2-0.8-4-1.8c-0.9-1.1-1.4-2.3-1.4-4.3c0-2,0.5-3.2,1.4-4.3c0.8-1,2.3-1.8,4-1.8
			c1.8,0,3.2,0.8,4,1.8c0.9,1.1,1.3,2.3,1.3,4.3C165.9,48.4,165.4,49.7,164.5,50.7z M166.8,28v-4.2h-1.5v-1.6h1.5V20l2-0.5v2.6h2.1
			v1.6h-2.1v4c0,0.6,0.3,0.9,0.9,0.9c0.4,0,0.7,0,1.3-0.1v1.7c-0.6,0.1-1.1,0.2-1.7,0.2C167.6,30.5,166.8,29.6,166.8,28z
			 M178.3,52.2h-2.8v-7.1c0-1.4-0.4-2.2-1.9-2.2c-1,0-1.6,0.6-2,1.5c-0.4,0.9-0.4,2.1-0.4,3.1v4.7h-2.8V40.7h2.3l0.2,1.5
			c0.7-1.2,2.1-1.8,3.4-1.8c2.5,0,3.9,1.7,3.9,4.1V52.2z M178.6,30.6c-0.8,0-1.5-0.3-2-0.7c-1-0.8-1.5-2.1-1.5-3.6
			c0-1.6,0.5-2.9,1.5-3.7c0.5-0.4,1.2-0.7,2-0.7c1,0,1.8,0.3,2.2,0.8v-3.8h2v11.5h-1.7l-0.1-0.9C180.5,30.3,179.6,30.6,178.6,30.6z
			 M191.7,52.1c-0.5,0.2-0.7,0.3-1.4,0.3c-1.2,0-1.9-0.8-2-1.6c-0.5,0.9-1.9,1.7-3.5,1.7c-2.7,0-4.2-1.7-4.2-3.6
			c0-2.2,1.7-3.5,3.9-3.6l3.4-0.2v-0.7c0-1.1-0.4-1.8-2-1.8c-1.3,0-2,0.6-2.1,1.6h-2.7c0.2-2.6,2.2-3.7,4.8-3.7c2,0,3.7,0.6,4.3,2.3
			c0.3,0.7,0.3,1.6,0.3,2.3v4.3c0,0.5,0.2,0.7,0.6,0.7c0.2,0,0.4,0,0.4,0V52.1z"/>
		<path class="st1" d="M98.5,41c0-1.5-1.2-2-2.4-2h-3.5v4h3.6C97.5,42.9,98.5,42.5,98.5,41z"/>
		<polygon class="st1" points="94.5,21.7 92.9,26.4 96.1,26.4 		"/>
		<path class="st1" d="M106.1,48.9c0,0.9,0.8,1.4,1.6,1.4c1.7,0,3-0.9,3-2.6v-0.5l-2.9,0.2C106.9,47.4,106.1,47.9,106.1,48.9z"/>
		<path class="st1" d="M153.8,24c-0.3-0.3-0.7-0.5-1.3-0.5c-0.6,0-1.1,0.3-1.4,0.6c-0.3,0.4-0.4,0.7-0.4,1.3h3.6
			C154.3,24.8,154.2,24.4,153.8,24z"/>
		<path class="st1" d="M189,24c-0.3-0.3-0.7-0.5-1.3-0.5c-0.6,0-1.1,0.3-1.4,0.6c-0.3,0.4-0.4,0.7-0.4,1.3h3.6
			C189.5,24.8,189.3,24.4,189,24z"/>
		<path class="st1" d="M141.5,42.6c-0.8,0-1.5,0.4-1.9,0.9c-0.4,0.5-0.6,1-0.6,1.8h5c0-0.9-0.3-1.5-0.7-2
			C142.8,42.9,142.3,42.6,141.5,42.6z"/>
		<path class="st1" d="M128.8,28c0,0.6,0.6,1,1.2,1c1.2,0,2.1-0.7,2.1-1.9v-0.4l-2.1,0.2C129.4,27,128.8,27.3,128.8,28z"/>
		<path class="st1" d="M96.2,45.3h-3.6v4.4h3.5c1.3,0,2.8-0.5,2.8-2.1C98.9,45.9,97.7,45.3,96.2,45.3z"/>
		<g>
			<polygon class="st2" points="33.6,17.3 33.6,17.3 33.6,17.3 			"/>
			<path class="st2" d="M37.1,22.3L17.5,41.9l19.6,19.6l0.1-0.1l19.5-19.5L37.1,22.3L37.1,22.3z M30.9,29.9v4.8h-4.8L30.9,29.9z
				 M24.1,36.7h6.8v4.9H19.2L24.1,36.7z M21,44l-1.8-1.8H21V44z M24.9,47.9l-2-2v-3.8h2V47.9z M28.9,51.9l-2-2v-7.7h2V51.9z
				 M32.9,55.9l-2-2V42.2h2V55.9z M36.8,59.8l-2-2V42.2h2V59.8z M36.8,41.6h-4v-4.9h4V41.6z M36.8,34.7h-4v-6.8l4-4V34.7z
				 M53.3,39.8l1.8,1.8h-1.8V39.8z M49.3,35.8l2,2v3.8h-2V35.8z M45.3,31.9l2,2v7.7h-2V31.9z M43.4,44.6v-2.5h11.7l-4.9,4.9h-3.4
				h-3.4V44.6z M43.4,49.1h4.8l-4.8,4.8V49.1z M41.4,27.9l2,2v11.7h-2V27.9z M37.4,23.9l2,2v15.7h-2V23.9z M37.4,42.2h4v4.9h-4V42.2
				z M37.4,49.1h4v6.8l-4,4V49.1z"/>
			<path class="st2" d="M37.9,0.9c-0.1,0-0.3,0-0.4,0c-0.1,0-0.2,0-0.2,0C16.7,1,0.1,17.6,0.1,38.2c0,20.5,16.6,37.2,37.1,37.3
				c0,0,0.1,0,0.1,0c0,0,0.1,0,0.1,0c0,0,0,0,0.1,0c20.6,0,37.3-16.7,37.3-37.3C74.7,17.7,58.3,1.1,37.9,0.9z M37.1,8.7
				C37.2,8.7,37.2,8.7,37.1,8.7C37.6,8.7,38,9.1,38,9.5c0,0.4-0.3,0.8-0.8,0.8c0,0-0.1,0-0.1,0c-0.5,0-0.8-0.4-0.8-0.8
				C36.3,9,36.7,8.7,37.1,8.7z M31.4,12.1c0.5,0,0.9,0.1,1.3,0.2c0.6-0.7,1.5-1.1,2.6-1.1c0.7,0,1.3,0.2,1.8,0.5c0,0,0.1,0,0.1,0
				c0.5-0.3,1.1-0.4,1.7-0.4c1.1,0,2,0.4,2.6,1.1c0.4-0.2,0.8-0.2,1.3-0.2c1.8,0,3.2,1.2,3.2,2.7c0,0.7-0.3,1.4-0.9,1.9l-0.9-0.9
				c0.3-0.3,0.5-0.6,0.5-1c0-0.8-0.9-1.5-2-1.5c-0.3,0-0.5,0-0.7,0.1c0,0.2,0.1,0.3,0.1,0.5c0,0.5-0.2,1.1-0.5,1.5l-0.9-0.9
				c0.1-0.2,0.2-0.4,0.2-0.6c0-0.8-0.9-1.5-2-1.5c-0.4,0-0.8,0.1-1.1,0.3v1.8h-0.6h-0.7v-1.8c-0.3-0.2-0.7-0.3-1.2-0.3
				c-1.1,0-2,0.7-2,1.5c0,0.2,0.1,0.4,0.2,0.6l-0.9,0.9c-0.3-0.4-0.5-0.9-0.5-1.5c0-0.2,0-0.3,0.1-0.5c-0.2-0.1-0.5-0.1-0.7-0.1
				c-1.1,0-2,0.7-2,1.5c0,0.4,0.2,0.7,0.5,1L29,16.7c-0.6-0.5-0.9-1.2-0.9-1.9C28.2,13.3,29.6,12.1,31.4,12.1z M31.1,17.9
				c0.3,0,0.6,0.3,0.7,0.6C31.7,18.8,31.3,19,31,19c-0.3,0-0.6-0.3-0.7-0.6c-0.4,0-0.7-0.2-0.8-0.5c-0.1-0.3-0.1-0.6,0.1-0.9
				c0.4,0.1,0.7,0.2,0.8,0.5c0.1,0.3,0.1,0.6-0.1,0.9C30.5,18.1,30.8,17.9,31.1,17.9z M37.1,18.6C37.2,18.6,37.2,18.6,37.1,18.6
				c2.3,0,4.3,0.5,6.1,1.4l-0.7,1c-1.5-0.7-3.4-1.2-5.3-1.2c0,0-0.1,0-0.1,0c-1.9,0-3.8,0.5-5.4,1.2L31,20
				C32.8,19.1,34.9,18.6,37.1,18.6z M33,16.7c-0.1-0.3,0.1-0.6,0.3-0.9c0.4,0.1,0.6,0.4,0.7,0.7c0.1,0.3-0.1,0.6-0.3,0.9
				c0.3-0.2,0.6-0.3,0.9-0.2c0.3,0.1,0.5,0.4,0.6,0.7c-0.3,0.2-0.6,0.3-0.9,0.2c-0.3-0.1-0.5-0.4-0.6-0.7c0.1,0.4,0,0.7-0.2,0.9
				c-0.2,0.2-0.6,0.2-0.9,0.1c-0.1-0.4,0-0.7,0.2-0.9c0.2-0.2,0.6-0.2,0.9-0.1c0,0,0,0,0,0C33.3,17.2,33,17,33,16.7z M36.6,16.2
				c0-0.3,0.2-0.6,0.5-0.8c0,0,0,0,0.1,0.1c0.3,0.2,0.4,0.4,0.4,0.7c0,0.3-0.2,0.5-0.4,0.7c0,0,0,0-0.1,0.1c0,0,0,0,0.1,0
				c0.3-0.1,0.6-0.2,0.9,0c0.3,0.2,0.4,0.5,0.4,0.8c-0.3,0.2-0.7,0.2-0.9,0c-0.2-0.1-0.3-0.3-0.4-0.5c0-0.1-0.1-0.2-0.1-0.4
				c0,0.4-0.2,0.7-0.4,0.8c-0.3,0.2-0.6,0.1-0.9,0c0-0.4,0.2-0.7,0.4-0.8c0.3-0.2,0.6-0.1,0.9,0C36.8,16.8,36.6,16.5,36.6,16.2z
				 M40.2,16.4c0.1-0.3,0.3-0.5,0.7-0.7c0.3,0.3,0.4,0.6,0.3,0.9c-0.1,0.3-0.3,0.5-0.7,0.7c0.4-0.1,0.7-0.1,0.9,0.1
				c0.2,0.2,0.3,0.5,0.2,0.9c-0.4,0.1-0.7,0.1-0.9-0.1c-0.2-0.2-0.3-0.5-0.2-0.9c-0.1,0.4-0.3,0.6-0.6,0.7c-0.3,0.1-0.6,0-0.9-0.2
				c0.1-0.4,0.3-0.6,0.6-0.7c0.3-0.1,0.6,0,0.9,0.2C40.3,17.1,40.2,16.8,40.2,16.4z M43.2,19c-0.3,0-0.6-0.1-0.8-0.4
				c0.2-0.3,0.4-0.6,0.7-0.6c0.3,0,0.6,0.1,0.8,0.4c-0.2-0.3-0.3-0.6-0.2-0.9c0.1-0.3,0.4-0.5,0.8-0.5c0.2,0.3,0.3,0.7,0.2,0.9
				c-0.1,0.3-0.4,0.5-0.8,0.5C43.7,18.7,43.5,18.9,43.2,19z M15.5,42.7c-0.4,0-0.8-0.4-0.8-0.8c0-0.5,0.4-0.8,0.8-0.8
				c0.4,0,0.8,0.4,0.8,0.8C16.3,42.3,15.9,42.7,15.5,42.7z M37.2,64.3C37.2,64.3,37.1,64.3,37.2,64.3c-0.5,0-0.9-0.3-0.9-0.8
				c0-0.4,0.4-0.8,0.8-0.8c0,0,0.1,0,0.1,0c0.4,0,0.7,0.4,0.7,0.8C37.9,64,37.6,64.3,37.2,64.3z M48,52.6
				c-6.3,6.3-10.2,8.7-10.8,9.1c-0.1,0-0.1,0.1-0.1,0.1s-3.9-2.2-10.7-9c-6.9-6.9-9.2-10.9-9.2-10.9s2.2-3.9,9-10.7
				c6.9-6.8,10.9-9.1,10.9-9.1s0,0,0.1,0.1c0.6,0.4,4.4,2.7,10.6,8.9c6.8,6.8,9.2,10.9,9.2,10.9S54.8,45.8,48,52.6z M58.8,42.7
				c-0.4,0-0.8-0.4-0.8-0.8c0-0.5,0.4-0.8,0.8-0.8c0.4,0,0.8,0.4,0.8,0.8C59.6,42.3,59.2,42.7,58.8,42.7z"/>
		</g>
		<g>
			<path class="st3" d="M15.5,41.1c-0.4,0-0.8,0.4-0.8,0.8c0,0.4,0.4,0.8,0.8,0.8c0.4,0,0.8-0.4,0.8-0.8
				C16.3,41.4,15.9,41.1,15.5,41.1z"/>
			<path class="st3" d="M37.1,10.3C37.2,10.3,37.2,10.3,37.1,10.3c0.5-0.1,0.8-0.4,0.8-0.8c0-0.4-0.3-0.8-0.8-0.8c0,0-0.1,0-0.1,0
				c-0.5,0-0.8,0.4-0.8,0.8C36.3,10,36.7,10.3,37.1,10.3z"/>
			<path class="st3" d="M34.2,18.1c0.3,0.1,0.6,0,0.9-0.2c-0.1-0.4-0.3-0.6-0.6-0.7c-0.3-0.1-0.6,0-0.9,0.2c0,0,0,0,0,0c0,0,0,0,0,0
				c0,0,0,0,0,0C33.7,17.7,33.9,18,34.2,18.1z"/>
			<path class="st3" d="M34,16.4c-0.1-0.3-0.3-0.5-0.7-0.7C33,16,32.9,16.4,33,16.7c0.1,0.3,0.3,0.5,0.7,0.7c0,0,0,0,0,0
				C33.9,17.1,34,16.7,34,16.4z"/>
			<path class="st3" d="M30.5,17.4c-0.1-0.3-0.4-0.5-0.8-0.5c-0.2,0.3-0.3,0.7-0.1,0.9c0.1,0.3,0.4,0.5,0.8,0.5
				C30.5,18.1,30.6,17.7,30.5,17.4z"/>
			<path class="st3" d="M31,19c0.3,0,0.6-0.1,0.8-0.4c-0.2-0.3-0.4-0.6-0.7-0.6c-0.3,0-0.6,0.1-0.8,0.4C30.5,18.7,30.7,18.9,31,19z"
				/>
			<path class="st3" d="M32.7,17.5c-0.2,0.2-0.3,0.5-0.2,0.9c0.3,0.1,0.7,0.1,0.9-0.1c0.2-0.2,0.3-0.5,0.2-0.9
				C33.3,17.2,32.9,17.3,32.7,17.5z"/>
			<path class="st3" d="M29.9,15.8c-0.3-0.3-0.5-0.6-0.5-1c0-0.8,0.9-1.5,2-1.5c0.3,0,0.5,0,0.7,0.1c0,0.2-0.1,0.3-0.1,0.5
				c0,0.5,0.2,1.1,0.5,1.5l0.9-0.9c-0.1-0.2-0.2-0.4-0.2-0.6c0-0.8,0.9-1.5,2-1.5c0.5,0,0.9,0.1,1.2,0.3v1.8h0.7h0.6v-1.8
				c0.3-0.2,0.7-0.3,1.1-0.3c1.1,0,2,0.7,2,1.5c0,0.2,0,0.4-0.2,0.6l0.9,0.9c0.3-0.4,0.5-0.9,0.5-1.5c0-0.2,0-0.3-0.1-0.5
				c0.2-0.1,0.5-0.1,0.7-0.1c1.1,0,2,0.7,2,1.5c0,0.4-0.2,0.7-0.5,1l0.9,0.9c0.5-0.5,0.9-1.2,0.9-1.9c0-1.5-1.5-2.7-3.2-2.7
				c-0.5,0-0.9,0.1-1.3,0.2c-0.6-0.7-1.5-1.1-2.6-1.1c-0.6,0-1.2,0.1-1.7,0.4c0,0-0.1,0-0.1,0c-0.5-0.3-1.1-0.5-1.8-0.5
				c-1.1,0-2,0.4-2.6,1.1c-0.4-0.2-0.9-0.2-1.3-0.2c-1.8,0-3.2,1.2-3.2,2.7c0,0.7,0.3,1.4,0.9,1.9L29.9,15.8z"/>
			<polygon class="st3" points="23,45.9 24.9,47.9 24.9,42.2 23,42.2 			"/>
			<polygon class="st3" points="34.8,57.8 36.8,59.8 36.8,42.2 34.8,42.2 			"/>
			<polygon class="st3" points="30.9,53.9 32.9,55.9 32.9,42.2 30.9,42.2 			"/>
			<rect x="32.9" y="36.7" class="st3" width="4" height="4.9"/>
			<polygon class="st3" points="26.9,49.9 28.9,51.9 28.9,42.2 26.9,42.2 			"/>
			<polygon class="st3" points="21,44 21,42.2 19.2,42.2 			"/>
			<path class="st3" d="M36.2,16.9c-0.3,0.2-0.4,0.5-0.4,0.8c0.3,0.2,0.7,0.2,0.9,0c0.3-0.2,0.4-0.5,0.4-0.8
				C36.8,16.8,36.5,16.8,36.2,16.9z"/>
			<polygon class="st3" points="32.9,34.7 36.8,34.7 36.8,23.9 32.9,27.9 			"/>
			<path class="st3" d="M37.1,19.8C37.1,19.8,37.2,19.8,37.1,19.8c2,0,3.9,0.5,5.4,1.2l0.7-1c-1.8-0.8-3.8-1.3-6-1.4
				c0,0-0.1,0-0.1,0c-2.2,0-4.3,0.5-6.1,1.4l0.7,1C33.3,20.3,35.2,19.8,37.1,19.8z"/>
			<polygon class="st3" points="41.4,49.1 37.4,49.1 37.4,59.8 41.4,55.9 			"/>
			<path class="st3" d="M39.7,17.1c-0.3,0.1-0.5,0.4-0.6,0.7c0.3,0.2,0.6,0.3,0.9,0.2c0.3-0.1,0.5-0.4,0.6-0.7
				C40.3,17.1,40,17,39.7,17.1z"/>
			<path class="st3" d="M37.2,22.1C37.1,22.1,37.1,22,37.2,22.1c-0.1-0.1-4.1,2.2-11,9.1c-6.8,6.8-9,10.7-9,10.7s2.3,4,9.2,10.9
				c6.8,6.8,10.7,9,10.7,9s0,0,0.1-0.1c0.6-0.4,4.5-2.8,10.8-9.1c6.8-6.8,8.9-10.7,8.9-10.7s-2.3-4-9.2-10.9
				C41.6,24.8,37.8,22.5,37.2,22.1z M37.2,61.3L37.2,61.3L17.5,41.9l19.6-19.6l0.1,0.1l19.5,19.5L37.2,61.3z"/>
			<path class="st3" d="M41.2,16.7c0.1-0.3-0.1-0.6-0.3-0.9c-0.4,0.1-0.6,0.4-0.7,0.7c-0.1,0.3,0.1,0.6,0.3,0.9
				C40.9,17.2,41.2,17,41.2,16.7z"/>
			<path class="st3" d="M40.8,18.2c0.2,0.2,0.6,0.2,0.9,0.1c0.1-0.4,0-0.7-0.2-0.9c-0.2-0.2-0.6-0.2-0.9-0.1
				C40.5,17.7,40.6,18,40.8,18.2z"/>
			<path class="st3" d="M37.6,17.8c0.3,0.2,0.6,0.1,0.9,0c0-0.4-0.2-0.7-0.4-0.8c-0.3-0.2-0.6-0.1-0.9,0c0,0,0,0-0.1,0
				c0,0.1,0,0.2,0.1,0.4C37.3,17.5,37.4,17.7,37.6,17.8z"/>
			<path class="st3" d="M37.7,16.2c0-0.3-0.2-0.5-0.4-0.7c0,0,0,0-0.1-0.1c-0.3,0.2-0.5,0.5-0.5,0.8c0,0.3,0.2,0.6,0.5,0.8
				c0,0,0,0,0.1-0.1C37.5,16.7,37.7,16.5,37.7,16.2z"/>
			<path class="st3" d="M44.7,17.9c0.1-0.3,0.1-0.6-0.2-0.9c-0.4,0.1-0.6,0.2-0.8,0.5c-0.1,0.3-0.1,0.6,0.2,0.9
				C44.3,18.3,44.6,18.2,44.7,17.9z"/>
			<rect x="37.4" y="42.2" class="st3" width="4" height="4.9"/>
			<polygon class="st3" points="43.3,29.9 41.4,27.9 41.4,41.6 43.3,41.6 			"/>
			<path class="st3" d="M43.9,18.4c-0.2-0.3-0.5-0.5-0.8-0.4c-0.3,0-0.6,0.3-0.7,0.6c0.2,0.3,0.5,0.5,0.8,0.4
				C43.5,18.9,43.7,18.7,43.9,18.4z"/>
			<path class="st3" d="M58.8,41.1c-0.4,0-0.8,0.4-0.8,0.8c0,0.4,0.4,0.8,0.8,0.8c0.4,0,0.8-0.4,0.8-0.8
				C59.6,41.4,59.2,41.1,58.8,41.1z"/>
			<polygon class="st3" points="51.3,37.8 49.3,35.8 49.3,41.6 51.3,41.6 			"/>
			<path class="st3" d="M37.2,62.8C37.2,62.7,37.1,62.7,37.2,62.8c-0.5,0-0.9,0.3-0.9,0.8c0,0.5,0.4,0.8,0.8,0.8c0,0,0.1,0,0.1,0
				c0.4,0,0.7-0.4,0.7-0.8C37.9,63.1,37.6,62.8,37.2,62.8z"/>
			<polygon class="st3" points="53.3,39.8 53.3,41.6 55.1,41.6 			"/>
			<polygon class="st3" points="47.3,33.9 45.3,31.9 45.3,41.6 47.3,41.6 			"/>
			<polygon class="st3" points="39.4,25.9 37.4,23.9 37.4,41.6 39.4,41.6 			"/>
			<polygon class="st3" points="43.4,49.1 43.4,53.9 48.1,49.1 			"/>
			<polygon class="st3" points="30.9,29.9 26.1,34.7 30.9,34.7 			"/>
			<polygon class="st3" points="50.1,47.1 55.1,42.2 43.4,42.2 43.4,44.6 43.4,47.1 46.7,47.1 			"/>
			<polygon class="st3" points="30.9,36.7 24.1,36.7 19.2,41.6 30.9,41.6 			"/>
			<path class="st3" d="M152,48.8V36.2h-2.8v13.1c0,2.2,1.3,3.1,3.1,3.1c0.6,0,0.7,0,1.2-0.2v-2.3c-0.2,0-0.2,0-0.5,0
				C152.2,49.9,152,49.5,152,48.8z"/>
			<path class="st3" d="M174.4,40.4c-1.3,0-2.7,0.6-3.4,1.8l-0.2-1.5h-2.3v11.5h2.8v-4.7c0-1,0-2.2,0.4-3.1c0.4-0.8,1-1.5,2-1.5
				c1.5,0,1.9,0.8,1.9,2.2v7.1h2.8v-7.7C178.3,42.2,176.9,40.4,174.4,40.4z"/>
			<path class="st3" d="M160.5,40.4c-1.8,0-3.2,0.8-4,1.8c-0.9,1.1-1.4,2.3-1.4,4.3c0,2,0.5,3.2,1.4,4.3c0.8,1,2.3,1.8,4,1.8
				c1.8,0,3.2-0.8,4-1.8c0.9-1.1,1.3-2.3,1.3-4.3c0-2-0.5-3.2-1.3-4.3C163.7,41.2,162.2,40.4,160.5,40.4z M162.2,49.4
				c-0.4,0.4-1,0.7-1.8,0.7c-0.8,0-1.4-0.3-1.8-0.7c-0.7-0.7-0.8-1.8-0.8-2.9c0-1.1,0.2-2.2,0.8-2.9c0.4-0.4,1-0.7,1.8-0.7
				c0.8,0,1.4,0.3,1.8,0.7c0.7,0.7,0.8,1.8,0.8,2.9C163,47.6,162.9,48.7,162.2,49.4z"/>
			<path class="st3" d="M99.5,44.1c1.3-0.6,1.9-2,1.9-3.3c0-1.4-0.7-2.7-1.8-3.4c-1.1-0.7-2.4-0.9-3.6-0.9h-6.3v15.7H96
				c1.5,0,3-0.1,4.2-1.1c1.1-0.9,1.6-2.1,1.6-3.5C101.8,46.2,101,44.8,99.5,44.1z M92.6,39h3.5c1.3,0,2.4,0.5,2.4,2
				c0,1.5-1.1,2-2.4,2h-3.6V39z M96.1,49.7h-3.5v-4.4h3.6c1.5,0,2.7,0.6,2.7,2.3C98.9,49.2,97.4,49.7,96.1,49.7z"/>
			<path class="st3" d="M141.5,40.4c-1.6,0-2.8,0.6-3.7,1.5c-1.1,1.1-1.7,2.8-1.7,4.6c0,1.9,0.6,3.5,1.8,4.6
				c0.9,0.9,2.1,1.4,3.6,1.4c1.5,0,2.9-0.5,3.9-1.6c0.4-0.5,0.9-1.4,1-2.1h-2.7c-0.1,0.4-0.3,0.7-0.6,1c-0.4,0.4-0.9,0.6-1.7,0.6
				c-0.8,0-1.3-0.3-1.7-0.7c-0.6-0.5-0.9-1.4-0.8-2.3h7.7c0-0.2,0-0.8,0-0.8c0-1.4-0.2-2.7-1-4C144.8,41.1,143.2,40.4,141.5,40.4z
				 M138.9,45.3c0-0.8,0.2-1.3,0.6-1.8c0.4-0.5,1.1-0.9,1.9-0.9c0.8,0,1.4,0.3,1.8,0.7c0.4,0.5,0.7,1.2,0.7,2H138.9z"/>
			<path class="st3" d="M119.4,42.4l-0.2-1.7h-2.4v11.5h2.8v-5.8c0-1.9,1-3.3,3-3.3c0.3,0,0.6,0,1,0.1v-2.7c-0.3,0-0.6-0.1-0.9-0.1
				C121.3,40.6,119.9,41.1,119.4,42.4z"/>
			<path class="st3" d="M191.3,50.1c-0.5,0-0.6-0.2-0.6-0.7v-4.3c0-0.8,0-1.6-0.3-2.3c-0.7-1.7-2.4-2.3-4.3-2.3
				c-2.6,0-4.6,1.2-4.8,3.7h2.7c0.1-1.1,0.8-1.6,2.1-1.6c1.6,0,2,0.7,2,1.8v0.7l-3.4,0.2c-2.2,0.2-3.9,1.4-3.9,3.6
				c0,1.9,1.4,3.6,4.2,3.6c1.6,0,3-0.8,3.5-1.7c0.1,0.9,0.8,1.6,2,1.6c0.7,0,0.9-0.1,1.4-0.3v-2C191.7,50.1,191.5,50.1,191.3,50.1z
				 M188,47.7c0,1.7-1.2,2.6-2.9,2.6c-0.9,0-1.6-0.6-1.6-1.4c0-0.9,0.8-1.4,1.7-1.5l2.9-0.2V47.7z"/>
			<path class="st3" d="M129.6,42.8c0.8,0,1.4,0.4,1.8,0.9c0.2,0.3,0.3,0.6,0.3,1.1h2.7c0-0.9-0.4-1.8-0.9-2.5
				c-0.8-1-2.2-1.8-3.9-1.8c-1.8,0-3.2,0.8-4,1.8c-0.9,1.1-1.3,2.5-1.3,4.2c0,1.7,0.4,3.1,1.3,4.2c0.8,1,2.3,1.8,4,1.8
				c1.8,0,3.2-0.8,3.9-1.8c0.5-0.7,0.8-1.6,0.9-2.5h-2.7c0,0.4-0.2,0.8-0.3,1.1c-0.3,0.5-0.9,0.9-1.8,0.9c-0.8,0-1.3-0.3-1.7-0.7
				c-0.7-0.7-0.8-1.8-0.8-2.9c0-1.1,0.1-2.2,0.8-2.9C128.3,43.1,128.9,42.8,129.6,42.8z"/>
			<path class="st3" d="M113.4,49.4v-4.3c0-0.8,0-1.6-0.3-2.3c-0.7-1.7-2.3-2.3-4.3-2.3c-2.6,0-4.6,1.2-4.8,3.7h2.7
				c0.1-1.1,0.8-1.6,2.1-1.6c1.6,0,2,0.7,2,1.8v0.7l-3.4,0.2c-2.2,0.2-3.9,1.4-3.9,3.6c0,1.9,1.4,3.6,4.2,3.6c1.6,0,3-0.8,3.5-1.7
				c0.1,0.9,0.8,1.6,1.9,1.6c0.7,0,0.9-0.1,1.4-0.3v-2c0,0-0.2,0-0.4,0C113.6,50.1,113.4,49.9,113.4,49.4z M110.7,47.7
				c0,1.7-1.2,2.6-3,2.6c-0.9,0-1.6-0.6-1.6-1.4c0-0.9,0.8-1.4,1.7-1.5l2.9-0.2V47.7z"/>
			<path class="st3" d="M181.1,30.4h1.7V18.9h-2v3.8c-0.3-0.4-1.1-0.8-2.2-0.8c-0.8,0-1.5,0.3-2,0.7c-1,0.8-1.5,2.1-1.5,3.7
				c0,1.6,0.5,2.8,1.5,3.6c0.5,0.4,1.2,0.7,2,0.7c0.9,0,1.8-0.3,2.3-1.1L181.1,30.4z M179,28.9c-0.6,0-1-0.3-1.3-0.7
				c-0.4-0.5-0.5-1.3-0.5-2c0-0.7,0.1-1.5,0.5-2c0.3-0.4,0.7-0.7,1.3-0.7c1.6,0,1.9,1.5,1.9,2.7C180.9,27.5,180.6,28.9,179,28.9z"/>
			<path class="st3" d="M144.9,21.9c-1.1,0-2,0.5-2.5,1.3c-0.4-0.8-1.2-1.3-2.4-1.3c-1.1,0-1.9,0.5-2.4,1.3l-0.2-1.1h-1.7v8.3h2
				v-4.5c0-1,0.5-2.2,1.6-2.2c1,0,1.3,0.6,1.3,1.6v5.1h2v-4.5c0-1,0.5-2.2,1.6-2.2c1,0,1.3,0.6,1.3,1.6v5.1h2v-5.6
				C147.6,23.1,146.7,21.9,144.9,21.9z"/>
			<path class="st3" d="M187.8,30.6c1,0,2.1-0.3,2.8-1.2c0.3-0.4,0.7-1,0.7-1.5h-1.9c-0.1,0.3-0.2,0.5-0.4,0.7
				c-0.3,0.3-0.6,0.4-1.2,0.4c-0.5,0-0.9-0.2-1.2-0.5c-0.4-0.4-0.6-1-0.6-1.6h5.5c0-0.2,0-0.6,0-0.6c0-1-0.1-2-0.7-2.9
				c-0.7-1-1.8-1.5-3-1.5c-1.1,0-2,0.4-2.6,1c-0.8,0.8-1.2,2-1.2,3.3c0,1.4,0.4,2.5,1.3,3.3C185.9,30.2,186.7,30.6,187.8,30.6z
				 M186.4,24.2c0.3-0.4,0.8-0.6,1.4-0.6c0.6,0,1,0.2,1.3,0.5c0.3,0.3,0.5,0.8,0.5,1.5h-3.6C185.9,24.9,186.1,24.5,186.4,24.2z"/>
			<path class="st3" d="M100.5,31.2c0,0.6-0.3,0.9-1,0.9c-0.3,0-0.4,0-1-0.1v1.7c0.4,0.1,0.6,0.1,0.9,0.2c0.3,0,0.5,0,0.7,0
				c1.5,0,2.3-0.9,2.3-2.3v-9.4h-2V31.2z"/>
			<path class="st3" d="M159.5,27c0-0.7,0-1.6,0.3-2.2c0.3-0.6,0.7-1.1,1.4-1.1c1,0,1.4,0.6,1.4,1.6v5.1h2v-5.5c0-1.7-1-3-2.8-3
				c-1,0-1.9,0.4-2.4,1.3l-0.1-1.1h-1.7v8.3h2V27z"/>
			<path class="st3" d="M107.1,30.6c1.1,0,2-0.5,2.4-1.3l0.1,1.1h1.7v-8.3h-2v4.4c0,0.7-0.1,1.4-0.6,1.9c-0.2,0.2-0.6,0.4-1,0.4
				c-1.1,0-1.4-0.6-1.4-1.6v-5.1h-2v5.5C104.2,29.4,105.3,30.6,107.1,30.6z"/>
			<path class="st3" d="M92.2,28.3h4.5l0.7,2.2h2.1l-4-11.3h-2.2l-4,11.3h2.1L92.2,28.3z M94.5,21.7l1.6,4.8h-3.2L94.5,21.7z"/>
			<path class="st3" d="M122.3,28c0,1.6,0.8,2.5,2.5,2.5c0.6,0,1.1-0.1,1.7-0.2v-1.7c-0.5,0.1-0.9,0.1-1.3,0.1
				c-0.6,0-0.9-0.3-0.9-0.9v-4h2.1v-1.6h-2.1v-2.6l-2,0.5v2.1h-1.5v1.6h1.5V28z"/>
			<path class="st3" d="M152.6,30.6c1,0,2.1-0.3,2.8-1.2c0.3-0.4,0.6-1,0.7-1.5h-1.9c-0.1,0.3-0.2,0.5-0.4,0.7
				c-0.3,0.3-0.6,0.4-1.2,0.4c-0.5,0-0.9-0.2-1.2-0.5c-0.4-0.4-0.6-1-0.6-1.6h5.5c0-0.2,0-0.6,0-0.6c0-1-0.1-2-0.7-2.9
				c-0.7-1-1.8-1.5-3-1.5c-1.1,0-2,0.4-2.6,1c-0.8,0.8-1.2,2-1.2,3.3c0,1.4,0.4,2.5,1.3,3.3C150.7,30.2,151.5,30.6,152.6,30.6z
				 M151.2,24.2c0.3-0.4,0.8-0.6,1.4-0.6c0.6,0,1,0.2,1.3,0.5c0.3,0.3,0.5,0.8,0.5,1.5h-3.6C150.8,24.9,150.9,24.5,151.2,24.2z"/>
			<path class="st3" d="M118.2,25.3v5.1h2v-5.5c0-1.7-1-3-2.8-3c-1,0-1.9,0.4-2.4,1.3l-0.1-1.1h-1.7v8.3h2V27c0-0.7,0-1.6,0.3-2.2
				c0.3-0.6,0.7-1.1,1.4-1.1C117.8,23.8,118.2,24.4,118.2,25.3z"/>
			<path class="st3" d="M171,30.3v-1.7c-0.5,0.1-0.9,0.1-1.3,0.1c-0.6,0-0.9-0.3-0.9-0.9v-4h2.1v-1.6h-2.1v-2.6l-2,0.5v2.1h-1.5v1.6
				h1.5V28c0,1.6,0.8,2.5,2.5,2.5C169.9,30.5,170.4,30.5,171,30.3z"/>
			<rect x="100.4" y="18.9" class="st3" width="2.1" height="2.1"/>
			<path class="st3" d="M134.1,28.4v-3.1c0-0.6,0-1.1-0.2-1.7c-0.5-1.2-1.7-1.7-3.1-1.7c-1.8,0-3.3,0.8-3.4,2.7h1.9
				c0-0.8,0.6-1.2,1.5-1.2c1.1,0,1.4,0.5,1.4,1.3v0.5l-2.4,0.2c-1.6,0.1-2.8,1-2.8,2.6c0,1.4,1,2.6,3,2.6c1.2,0,2.1-0.6,2.5-1.2
				c0.1,0.6,0.5,1.2,1.4,1.2c0.5,0,0.7-0.1,1-0.2v-1.5c0,0-0.1,0-0.3,0C134.2,28.9,134.1,28.8,134.1,28.4z M132.1,27.1
				c0,1.2-0.9,1.9-2.1,1.9c-0.6,0-1.2-0.4-1.2-1c0-0.7,0.6-1,1.2-1.1l2.1-0.2V27.1z"/>
		</g>
		<path class="st1" d="M270.6,36.9c0.2,0,0.5,0,0.7,0c0.2,0,0.4,0,0.6,0c0.7,0,1.4-0.1,2-0.2c0.6-0.1,1.1-0.4,1.6-0.7
			c0.4-0.3,0.8-0.7,1-1.1c0.3-0.5,0.4-1,0.4-1.6c0-0.5-0.1-1-0.2-1.4c-0.2-0.4-0.4-0.7-0.6-1c-0.3-0.3-0.6-0.5-0.9-0.6
			c-0.3-0.1-0.7-0.2-1-0.3c0.3-0.1,0.5-0.2,0.8-0.4c0.3-0.2,0.5-0.4,0.7-0.6c0.2-0.2,0.3-0.5,0.4-0.8c0.1-0.3,0.2-0.6,0.2-1
			c0-1.1-0.4-1.9-1.1-2.5c-0.7-0.5-1.8-0.8-3.2-0.8c-0.2,0-0.4,0-0.7,0c-0.3,0-0.5,0-0.7,0.1c-0.2,0-0.5,0-0.7,0.1
			c-0.2,0-0.4,0-0.5,0.1v12.6c0.2,0,0.4,0,0.6,0.1C270.2,36.8,270.4,36.8,270.6,36.9z M270.6,25.1c0.2,0,0.4,0,0.7-0.1
			c0.3,0,0.6,0,0.9,0c1,0,1.7,0.2,2.2,0.6c0.5,0.4,0.7,1,0.7,1.6c0,0.7-0.2,1.2-0.7,1.6c-0.4,0.4-1.1,0.6-2.1,0.6h-1.7V25.1z
			 M270.6,30.6h1.8c0.5,0,0.9,0.1,1.3,0.1c0.4,0.1,0.8,0.2,1.1,0.5c0.3,0.2,0.5,0.5,0.7,0.8c0.2,0.3,0.3,0.7,0.3,1.2
			c0,0.5-0.1,0.9-0.3,1.2c-0.2,0.3-0.5,0.6-0.8,0.8c-0.3,0.2-0.7,0.3-1.2,0.4c-0.4,0.1-0.9,0.1-1.3,0.1c-0.3,0-0.6,0-0.9,0
			c-0.3,0-0.5,0-0.7-0.1V30.6z"/>
		<path class="st1" d="M279.4,36.3c0.6,0.4,1.5,0.6,2.6,0.6c0.5,0,1.1,0,1.7-0.1c0.6-0.1,1.1-0.2,1.5-0.2v-5.9
			c0-1.1-0.3-1.8-0.8-2.3c-0.5-0.5-1.4-0.7-2.5-0.7c-0.5,0-0.9,0-1.4,0.1c-0.4,0.1-0.8,0.1-1.1,0.2c0,0.2,0,0.4,0.1,0.6
			c0,0.2,0.1,0.3,0.2,0.5c0.3-0.1,0.6-0.2,1-0.2c0.4-0.1,0.8-0.1,1.3-0.1c0.7,0,1.2,0.2,1.6,0.5c0.4,0.4,0.5,0.9,0.5,1.7v0.5
			c-0.2,0-0.4-0.1-0.8-0.1c-0.3,0-0.7,0-1.1,0c-0.5,0-1,0.1-1.5,0.2c-0.4,0.1-0.8,0.3-1.2,0.6c-0.3,0.3-0.6,0.6-0.8,0.9
			c-0.2,0.4-0.3,0.8-0.3,1.3C278.4,35.1,278.7,35.8,279.4,36.3z M280.3,32.7c0.5-0.3,1.2-0.5,2-0.5c0.3,0,0.6,0,0.8,0
			c0.3,0,0.5,0.1,0.7,0.1v3.3c-0.3,0.1-0.6,0.1-0.9,0.1c-0.3,0-0.7,0.1-1,0.1c-0.3,0-0.6,0-0.8-0.1c-0.3,0-0.5-0.1-0.8-0.2
			c-0.2-0.1-0.4-0.3-0.6-0.5c-0.1-0.2-0.2-0.5-0.2-0.9C279.6,33.5,279.8,33.1,280.3,32.7z"/>
		<path class="st1" d="M288,36.7c0.1,0,0.2,0,0.3,0c0.1,0,0.2,0,0.3,0v-4.6c0-1.2,0.2-2,0.7-2.5c0.5-0.5,1.1-0.8,1.9-0.8h0.2
			c0.1,0,0.1,0,0.2,0c0-0.2,0.1-0.4,0.1-0.5c0-0.2,0-0.4-0.1-0.6c-0.1,0-0.2,0-0.2,0h-0.2c-0.7,0-1.2,0.2-1.7,0.4
			c-0.4,0.3-0.7,0.7-1,1.1c0-0.2,0-0.5,0-0.8c0-0.3,0-0.5-0.1-0.7c-0.1,0-0.2,0-0.3,0c-0.1,0-0.2,0-0.3,0c-0.1,0-0.2,0-0.3,0
			c-0.1,0-0.2,0-0.3,0v8.9c0.1,0,0.2,0,0.3,0C287.8,36.7,287.9,36.7,288,36.7z"/>
		<path class="st1" d="M299,36.6c0-0.1-0.1-0.3-0.1-0.5c0-0.2-0.1-0.4-0.2-0.5c-0.3,0.1-0.5,0.2-0.9,0.2c-0.3,0.1-0.7,0.1-1,0.1
			c-1,0-1.8-0.3-2.4-0.9c-0.6-0.6-0.9-1.5-0.9-2.8c0-0.5,0.1-1,0.2-1.5c0.1-0.4,0.3-0.8,0.6-1.2c0.3-0.3,0.6-0.6,1-0.8
			c0.4-0.2,0.8-0.3,1.4-0.3c0.4,0,0.8,0,1.1,0.1c0.4,0.1,0.7,0.1,0.9,0.2c0-0.1,0.1-0.3,0.1-0.5c0-0.2,0.1-0.4,0.1-0.5
			c-0.2-0.1-0.6-0.2-1-0.2c-0.4-0.1-0.8-0.1-1.3-0.1c-0.7,0-1.3,0.1-1.9,0.4c-0.5,0.2-1,0.6-1.4,1c-0.4,0.4-0.6,0.9-0.8,1.5
			c-0.2,0.6-0.3,1.2-0.3,1.8c0,1.5,0.4,2.7,1.1,3.5c0.8,0.8,1.9,1.2,3.3,1.2c0.5,0,0.9,0,1.2-0.1C298.4,36.7,298.7,36.7,299,36.6z"
			/>
		<path class="st1" d="M300.8,35.6c0.4,0.4,0.8,0.7,1.4,1c0.6,0.2,1.2,0.3,2,0.3c0.5,0,1,0,1.5-0.1c0.5-0.1,0.9-0.2,1.2-0.3
			c0-0.2,0-0.3-0.1-0.5c0-0.2-0.1-0.3-0.1-0.5c-0.4,0.1-0.7,0.2-1.1,0.3c-0.4,0.1-0.8,0.1-1.2,0.1c-1.1,0-1.9-0.3-2.5-0.8
			c-0.6-0.6-0.8-1.4-0.8-2.6h6.4c0-0.1,0-0.3,0-0.4c0-0.2,0-0.3,0-0.4c0-0.6-0.1-1.1-0.2-1.6c-0.2-0.5-0.4-0.9-0.7-1.3
			c-0.3-0.4-0.7-0.6-1.1-0.8c-0.5-0.2-1-0.3-1.6-0.3c-0.7,0-1.3,0.1-1.8,0.4c-0.5,0.2-0.9,0.6-1.2,1c-0.3,0.4-0.6,0.9-0.7,1.5
			c-0.2,0.6-0.2,1.2-0.2,1.8c0,0.7,0.1,1.3,0.3,1.9C300.2,34.7,300.5,35.2,300.8,35.6z M301.9,29.3c0.5-0.5,1.1-0.8,1.9-0.8
			c0.4,0,0.8,0.1,1.1,0.2c0.3,0.2,0.6,0.4,0.8,0.6c0.2,0.3,0.3,0.6,0.4,0.9c0.1,0.4,0.1,0.7,0.1,1.1h-5.2
			C301.2,30.6,301.4,29.8,301.9,29.3z"/>
		<path class="st1" d="M309.9,36.5c0.2,0.1,0.4,0.2,0.7,0.3c0.2,0.1,0.5,0.1,0.7,0.1c0.2,0,0.4,0,0.6,0c0.2,0,0.4-0.1,0.6-0.1
			c0-0.1,0-0.3-0.1-0.5c0-0.2-0.1-0.3-0.1-0.5c-0.1,0-0.2,0-0.3,0.1c-0.1,0-0.3,0-0.4,0c-0.1,0-0.2,0-0.3,0c-0.1,0-0.2-0.1-0.3-0.1
			c-0.1-0.1-0.2-0.2-0.3-0.4c-0.1-0.2-0.1-0.4-0.1-0.7V23.8c-0.1,0-0.2,0-0.3,0c-0.1,0-0.2,0-0.3,0c-0.1,0-0.2,0-0.3,0
			c-0.1,0-0.2,0-0.3,0v11.1c0,0.4,0.1,0.7,0.2,1C309.6,36.1,309.8,36.3,309.9,36.5z"/>
		<path class="st1" d="M320,28.9c-0.3-0.4-0.7-0.7-1.2-1c-0.5-0.2-1.1-0.4-1.7-0.4c-0.7,0-1.2,0.1-1.8,0.4c-0.5,0.2-0.9,0.6-1.3,1
			c-0.3,0.4-0.6,0.9-0.7,1.5c-0.2,0.6-0.2,1.2-0.2,1.8c0,0.7,0.1,1.3,0.2,1.8c0.2,0.6,0.4,1.1,0.7,1.5c0.3,0.4,0.8,0.7,1.3,1
			c0.5,0.2,1.1,0.4,1.8,0.4c0.7,0,1.2-0.1,1.7-0.4c0.5-0.2,0.9-0.6,1.2-1c0.3-0.4,0.6-0.9,0.8-1.5c0.2-0.6,0.3-1.2,0.3-1.8
			c0-0.7-0.1-1.3-0.3-1.8C320.6,29.8,320.3,29.3,320,28.9z M319.1,34.9c-0.5,0.7-1.2,1-2.1,1c-0.9,0-1.6-0.3-2.1-1
			c-0.5-0.7-0.7-1.5-0.7-2.7c0-1.1,0.2-2,0.7-2.7c0.5-0.7,1.2-1,2.1-1c0.9,0,1.6,0.3,2.1,1c0.5,0.7,0.7,1.5,0.7,2.7
			C319.8,33.4,319.5,34.3,319.1,34.9z"/>
		<path class="st1" d="M327.1,27.6c-0.4,0-0.7,0.1-1.1,0.2c-0.3,0.1-0.6,0.3-0.9,0.4c-0.3,0.2-0.5,0.4-0.7,0.6
			c-0.2,0.2-0.3,0.4-0.5,0.6c0-0.2,0-0.5,0-0.8c0-0.3,0-0.6-0.1-0.8c-0.1,0-0.2,0-0.3,0c-0.1,0-0.2,0-0.3,0c-0.1,0-0.2,0-0.3,0
			c-0.1,0-0.2,0-0.3,0v8.9c0.1,0,0.2,0,0.3,0c0.1,0,0.2,0,0.3,0c0.1,0,0.2,0,0.3,0c0.1,0,0.2,0,0.3,0v-4.4c0-0.6,0.1-1.1,0.2-1.6
			c0.2-0.5,0.4-0.8,0.6-1.1c0.3-0.3,0.6-0.5,0.9-0.7c0.4-0.2,0.7-0.2,1.2-0.2c0.6,0,1.1,0.2,1.4,0.6c0.3,0.4,0.5,1.1,0.5,2.1v5.3
			c0.1,0,0.2,0,0.3,0c0.1,0,0.2,0,0.3,0c0.1,0,0.2,0,0.3,0c0.1,0,0.2,0,0.3,0v-5.6c0-1.1-0.2-2-0.7-2.6
			C328.9,27.9,328.1,27.6,327.1,27.6z"/>
		<path class="st1" d="M335,27.6c-0.5,0-0.9,0-1.4,0.1c-0.4,0.1-0.8,0.1-1.1,0.2c0,0.2,0,0.4,0.1,0.6s0.1,0.3,0.1,0.5
			c0.3-0.1,0.6-0.2,1-0.2c0.4-0.1,0.8-0.1,1.3-0.1c0.7,0,1.2,0.2,1.6,0.5c0.4,0.4,0.5,0.9,0.5,1.7v0.5c-0.2,0-0.4-0.1-0.8-0.1
			c-0.3,0-0.7,0-1.1,0c-0.5,0-1,0.1-1.5,0.2c-0.4,0.1-0.8,0.3-1.2,0.6c-0.3,0.3-0.6,0.6-0.8,0.9c-0.2,0.4-0.3,0.8-0.3,1.3
			c0,1,0.3,1.7,0.9,2.1c0.6,0.4,1.5,0.6,2.6,0.6c0.5,0,1.1,0,1.7-0.1c0.6-0.1,1.1-0.2,1.5-0.2v-5.9c0-1.1-0.3-1.8-0.8-2.3
			C337,27.8,336.1,27.6,335,27.6z M337.2,35.7c-0.3,0.1-0.6,0.1-0.9,0.1c-0.3,0-0.7,0.1-1,0.1c-0.3,0-0.6,0-0.8-0.1
			c-0.3,0-0.5-0.1-0.8-0.2c-0.2-0.1-0.4-0.3-0.6-0.5c-0.1-0.2-0.2-0.5-0.2-0.9c0-0.6,0.2-1.1,0.7-1.4c0.5-0.3,1.2-0.5,2-0.5
			c0.3,0,0.6,0,0.8,0c0.3,0,0.5,0.1,0.7,0.1V35.7z"/>
		<g>
			<path d="M179,23.6c-0.6,0-1,0.3-1.3,0.7c-0.4,0.5-0.5,1.3-0.5,2c0,0.7,0.1,1.5,0.5,2c0.3,0.4,0.7,0.7,1.3,0.7
				c1.6,0,1.9-1.5,1.9-2.7C180.9,25.1,180.6,23.6,179,23.6z"/>
			<path d="M160.5,42.8c-0.8,0-1.4,0.3-1.8,0.7c-0.7,0.7-0.8,1.8-0.8,2.9c0,1.1,0.2,2.2,0.8,2.9c0.4,0.4,1,0.7,1.8,0.7
				c0.8,0,1.4-0.3,1.8-0.7c0.7-0.7,0.8-1.8,0.8-2.9c0-1.1-0.2-2.2-0.8-2.9C161.8,43.2,161.2,42.8,160.5,42.8z"/>
			<path d="M183.4,48.9c0,0.9,0.8,1.4,1.6,1.4c1.7,0,2.9-0.9,2.9-2.6v-0.5l-2.9,0.2C184.2,47.4,183.4,47.9,183.4,48.9z"/>
			<path d="M181.5,0.9H37.9c20.4,0.2,36.9,16.8,36.9,37.3c0,20.6-16.7,37.3-37.3,37.3h143.9c0,0,0,0,0.1,0c0,0,0.1,0,0.1,0
				c20.5-0.1,37.2-16.7,37.2-37.3C218.8,17.6,202.1,0.9,181.5,0.9z M185.1,23c0.6-0.6,1.5-1,2.6-1c1.2,0,2.3,0.5,3,1.5
				c0.6,0.9,0.7,1.8,0.7,2.9c0,0,0,0.4,0,0.6h-5.5c0,0.6,0.2,1.2,0.6,1.6c0.3,0.3,0.7,0.5,1.2,0.5c0.6,0,0.9-0.1,1.2-0.4
				c0.2-0.2,0.3-0.4,0.4-0.7h1.9c0,0.5-0.4,1.1-0.7,1.5c-0.7,0.8-1.7,1.2-2.8,1.2c-1.1,0-2-0.4-2.6-1c-0.8-0.8-1.3-2-1.3-3.3
				C183.9,25,184.3,23.8,185.1,23z M157.6,22.1h1.7l0.1,1.1c0.5-0.9,1.5-1.3,2.4-1.3c1.8,0,2.8,1.2,2.8,3v5.5h-2v-5.1
				c0-1-0.3-1.6-1.4-1.6c-0.7,0-1.2,0.4-1.4,1.1c-0.3,0.7-0.3,1.5-0.3,2.2v3.4h-2V22.1z M120.8,22.1h1.5V20l2-0.5v2.6h2.1v1.6h-2.1
				v4c0,0.6,0.3,0.9,0.9,0.9c0.4,0,0.7,0,1.3-0.1v1.7c-0.6,0.1-1.1,0.2-1.7,0.2c-1.7,0-2.5-1-2.5-2.5v-4.2h-1.5V22.1z M104.2,22.1h2
				v5.1c0,1,0.4,1.6,1.4,1.6c0.5,0,0.8-0.2,1-0.4c0.5-0.4,0.6-1.2,0.6-1.9v-4.4h2v8.3h-1.7l-0.1-1.1c-0.4,0.8-1.3,1.3-2.4,1.3
				c-1.8,0-2.9-1.2-2.9-3V22.1z M93.4,19.1h2.2l4,11.3h-2.1l-0.7-2.2h-4.5l-0.7,2.2h-2.1L93.4,19.1z M100.2,51.2
				c-1.2,0.9-2.7,1.1-4.2,1.1h-6.3V36.5H96c1.3,0,2.6,0.2,3.6,0.9c1.2,0.8,1.8,2.1,1.8,3.4c0,1.3-0.6,2.7-1.9,3.3
				c1.5,0.7,2.3,2.1,2.3,3.5C101.8,49.1,101.3,50.3,100.2,51.2z M102.5,31.6c0,1.4-0.8,2.3-2.3,2.3c-0.2,0-0.4,0-0.7,0
				c-0.3,0-0.5-0.1-0.9-0.2V32c0.6,0.1,0.7,0.1,1,0.1c0.6,0,1-0.3,1-0.9v-9h2V31.6z M102.5,21h-2.1v-2.1h2.1V21z M114.4,52.1
				c-0.5,0.2-0.7,0.3-1.4,0.3c-1.2,0-1.9-0.8-1.9-1.6c-0.5,0.9-1.9,1.7-3.5,1.7c-2.8,0-4.2-1.7-4.2-3.6c0-2.2,1.7-3.5,3.9-3.6
				l3.4-0.2v-0.7c0-1.1-0.4-1.8-2-1.8c-1.3,0-2,0.6-2.1,1.6H104c0.2-2.6,2.2-3.7,4.8-3.7c2,0,3.7,0.6,4.3,2.3
				c0.3,0.7,0.3,1.6,0.3,2.3v4.3c0,0.5,0.2,0.7,0.6,0.7c0.2,0,0.4,0,0.4,0V52.1z M115.4,24.8c-0.3,0.7-0.3,1.5-0.3,2.2v3.4h-2v-8.3
				h1.7l0.1,1.1c0.5-0.9,1.5-1.3,2.4-1.3c1.8,0,2.8,1.2,2.8,3v5.5h-2v-5.1c0-1-0.3-1.6-1.4-1.6C116.1,23.8,115.6,24.2,115.4,24.8z
				 M123.5,43.3c-0.3-0.1-0.6-0.1-1-0.1c-2,0-3,1.4-3,3.3v5.8h-2.8V40.7h2.4l0.2,1.7c0.5-1.3,1.9-1.9,3.3-1.9c0.3,0,0.6,0,0.9,0.1
				V43.3z M128,49.4c0.4,0.4,0.9,0.7,1.7,0.7c0.8,0,1.4-0.4,1.8-0.9c0.2-0.3,0.3-0.6,0.3-1.1h2.7c0,0.9-0.4,1.8-0.9,2.5
				c-0.8,1-2.2,1.8-3.9,1.8c-1.8,0-3.2-0.8-4-1.8c-0.9-1.1-1.3-2.5-1.3-4.2c0-1.7,0.4-3.1,1.3-4.2c0.8-1,2.3-1.8,4-1.8
				c1.8,0,3.2,0.8,3.9,1.8c0.5,0.7,0.8,1.6,0.9,2.5h-2.7c0-0.4-0.2-0.8-0.3-1.1c-0.3-0.5-0.9-0.9-1.8-0.9c-0.8,0-1.3,0.3-1.7,0.7
				c-0.7,0.7-0.8,1.8-0.8,2.9C127.2,47.5,127.3,48.6,128,49.4z M134.8,30.3c-0.3,0.1-0.5,0.2-1,0.2c-0.9,0-1.3-0.5-1.4-1.2
				c-0.4,0.7-1.3,1.2-2.5,1.2c-2,0-3-1.2-3-2.6c0-1.6,1.2-2.5,2.8-2.6l2.4-0.2v-0.5c0-0.8-0.3-1.3-1.4-1.3c-0.9,0-1.5,0.4-1.5,1.2
				h-1.9c0.1-1.9,1.6-2.7,3.4-2.7c1.4,0,2.6,0.4,3.1,1.7c0.2,0.5,0.2,1.1,0.2,1.7v3.1c0,0.4,0.1,0.5,0.5,0.5c0.1,0,0.3,0,0.3,0V30.3
				z M146.7,46.6c0,0,0,0.5,0,0.8H139c0,0.9,0.3,1.7,0.8,2.3c0.4,0.4,1,0.7,1.7,0.7c0.8,0,1.3-0.2,1.7-0.6c0.2-0.2,0.4-0.6,0.6-1
				h2.7c-0.1,0.7-0.5,1.6-1,2.1c-1,1.2-2.4,1.6-3.9,1.6c-1.6,0-2.7-0.6-3.6-1.4c-1.2-1.1-1.8-2.7-1.8-4.6c0-1.8,0.6-3.5,1.7-4.6
				c0.9-0.9,2.1-1.5,3.7-1.5c1.7,0,3.3,0.7,4.2,2.1C146.5,43.8,146.7,45.1,146.7,46.6z M147.6,30.4h-2v-5.1c0-1-0.3-1.6-1.3-1.6
				c-1.1,0-1.6,1.2-1.6,2.2v4.5h-2v-5.1c0-1-0.3-1.6-1.3-1.6c-1.1,0-1.6,1.2-1.6,2.2v4.5h-2v-8.3h1.7l0.2,1.1
				c0.5-0.8,1.3-1.3,2.4-1.3c1.2,0,2,0.5,2.4,1.3c0.5-0.9,1.4-1.3,2.5-1.3c1.8,0,2.7,1.2,2.7,2.9V30.4z M150,23c0.6-0.6,1.5-1,2.6-1
				c1.2,0,2.3,0.5,3,1.5c0.6,0.9,0.7,1.8,0.7,2.9c0,0,0,0.4,0,0.6h-5.5c0,0.6,0.2,1.2,0.6,1.6c0.3,0.3,0.7,0.5,1.2,0.5
				c0.6,0,0.9-0.1,1.2-0.4c0.2-0.2,0.3-0.4,0.4-0.7h1.9c0,0.5-0.4,1.1-0.7,1.5c-0.7,0.8-1.7,1.2-2.8,1.2c-1.1,0-2-0.4-2.6-1
				c-0.8-0.8-1.3-2-1.3-3.3C148.8,25,149.2,23.8,150,23z M153.6,52.2c-0.6,0.1-0.7,0.2-1.2,0.2c-1.9,0-3.1-0.9-3.1-3.1V36.2h2.8
				v12.6c0,0.7,0.2,1.1,1.1,1.1c0.2,0,0.3,0,0.5,0V52.2z M164.5,50.7c-0.8,1-2.3,1.8-4,1.8c-1.8,0-3.2-0.8-4-1.8
				c-0.9-1.1-1.4-2.3-1.4-4.3c0-2,0.5-3.2,1.4-4.3c0.8-1,2.3-1.8,4-1.8c1.8,0,3.2,0.8,4,1.8c0.9,1.1,1.3,2.3,1.3,4.3
				C165.9,48.4,165.4,49.7,164.5,50.7z M166.8,28v-4.2h-1.5v-1.6h1.5V20l2-0.5v2.6h2.1v1.6h-2.1v4c0,0.6,0.3,0.9,0.9,0.9
				c0.4,0,0.7,0,1.3-0.1v1.7c-0.6,0.1-1.1,0.2-1.7,0.2C167.6,30.5,166.8,29.6,166.8,28z M178.3,52.2h-2.8v-7.1
				c0-1.4-0.4-2.2-1.9-2.2c-1,0-1.6,0.6-2,1.5c-0.4,0.9-0.4,2.1-0.4,3.1v4.7h-2.8V40.7h2.3l0.2,1.5c0.7-1.2,2.1-1.8,3.4-1.8
				c2.5,0,3.9,1.7,3.9,4.1V52.2z M178.6,30.6c-0.8,0-1.5-0.3-2-0.7c-1-0.8-1.5-2.1-1.5-3.6c0-1.6,0.5-2.9,1.5-3.7
				c0.5-0.4,1.2-0.7,2-0.7c1,0,1.8,0.3,2.2,0.8v-3.8h2v11.5h-1.7l-0.1-0.9C180.5,30.3,179.6,30.6,178.6,30.6z M191.7,52.1
				c-0.5,0.2-0.7,0.3-1.4,0.3c-1.2,0-1.9-0.8-2-1.6c-0.5,0.9-1.9,1.7-3.5,1.7c-2.7,0-4.2-1.7-4.2-3.6c0-2.2,1.7-3.5,3.9-3.6l3.4-0.2
				v-0.7c0-1.1-0.4-1.8-2-1.8c-1.3,0-2,0.6-2.1,1.6h-2.7c0.2-2.6,2.2-3.7,4.8-3.7c2,0,3.7,0.6,4.3,2.3c0.3,0.7,0.3,1.6,0.3,2.3v4.3
				c0,0.5,0.2,0.7,0.6,0.7c0.2,0,0.4,0,0.4,0V52.1z"/>
			<path d="M98.5,41c0-1.5-1.2-2-2.4-2h-3.5v4h3.6C97.5,42.9,98.5,42.5,98.5,41z"/>
			<polygon points="94.5,21.7 92.9,26.4 96.1,26.4 			"/>
			<path d="M106.1,48.9c0,0.9,0.8,1.4,1.6,1.4c1.7,0,3-0.9,3-2.6v-0.5l-2.9,0.2C106.9,47.4,106.1,47.9,106.1,48.9z"/>
			<path d="M153.8,24c-0.3-0.3-0.7-0.5-1.3-0.5c-0.6,0-1.1,0.3-1.4,0.6c-0.3,0.4-0.4,0.7-0.4,1.3h3.6
				C154.3,24.8,154.2,24.4,153.8,24z"/>
			<path d="M189,24c-0.3-0.3-0.7-0.5-1.3-0.5c-0.6,0-1.1,0.3-1.4,0.6c-0.3,0.4-0.4,0.7-0.4,1.3h3.6C189.5,24.8,189.3,24.4,189,24z"
				/>
			<path d="M141.5,42.6c-0.8,0-1.5,0.4-1.9,0.9c-0.4,0.5-0.6,1-0.6,1.8h5c0-0.9-0.3-1.5-0.7-2C142.8,42.9,142.3,42.6,141.5,42.6z"/>
			<path d="M128.8,28c0,0.6,0.6,1,1.2,1c1.2,0,2.1-0.7,2.1-1.9v-0.4l-2.1,0.2C129.4,27,128.8,27.3,128.8,28z"/>
			<path d="M96.2,45.3h-3.6v4.4h3.5c1.3,0,2.8-0.5,2.8-2.1C98.9,45.9,97.7,45.3,96.2,45.3z"/>
			<path d="M276.1,30.9c-0.3-0.3-0.6-0.5-0.9-0.6c-0.3-0.1-0.7-0.2-1-0.3c0.3-0.1,0.5-0.2,0.8-0.4c0.3-0.2,0.5-0.4,0.7-0.6
				c0.2-0.2,0.3-0.5,0.4-0.8c0.1-0.3,0.2-0.6,0.2-1c0-1.1-0.4-1.9-1.1-2.5c-0.7-0.5-1.8-0.8-3.2-0.8c-0.2,0-0.4,0-0.7,0
				c-0.3,0-0.5,0-0.7,0.1c-0.2,0-0.5,0-0.7,0.1c-0.2,0-0.4,0-0.5,0.1v12.6c0.2,0,0.4,0,0.6,0.1c0.2,0,0.5,0.1,0.7,0.1
				c0.2,0,0.5,0,0.7,0c0.2,0,0.4,0,0.6,0c0.7,0,1.4-0.1,2-0.2c0.6-0.1,1.1-0.4,1.6-0.7c0.4-0.3,0.8-0.7,1-1.1c0.3-0.5,0.4-1,0.4-1.6
				c0-0.5-0.1-1-0.2-1.4C276.6,31.5,276.4,31.1,276.1,30.9z M270.6,25.1c0.2,0,0.4,0,0.7-0.1c0.3,0,0.6,0,0.9,0c1,0,1.7,0.2,2.2,0.6
				c0.5,0.4,0.7,1,0.7,1.6c0,0.7-0.2,1.2-0.7,1.6c-0.4,0.4-1.1,0.6-2.1,0.6h-1.7V25.1z M275.4,34.5c-0.2,0.3-0.5,0.6-0.8,0.8
				c-0.3,0.2-0.7,0.3-1.2,0.4c-0.4,0.1-0.9,0.1-1.3,0.1c-0.3,0-0.6,0-0.9,0c-0.3,0-0.5,0-0.7-0.1v-5.1h1.8c0.5,0,0.9,0.1,1.3,0.1
				c0.4,0.1,0.8,0.2,1.1,0.5c0.3,0.2,0.5,0.5,0.7,0.8c0.2,0.3,0.3,0.7,0.3,1.2C275.7,33.8,275.6,34.2,275.4,34.5z"/>
			<path d="M281.7,27.6c-0.5,0-0.9,0-1.4,0.1c-0.4,0.1-0.8,0.1-1.1,0.2c0,0.2,0,0.4,0.1,0.6c0,0.2,0.1,0.3,0.2,0.5
				c0.3-0.1,0.6-0.2,1-0.2c0.4-0.1,0.8-0.1,1.3-0.1c0.7,0,1.2,0.2,1.6,0.5c0.4,0.4,0.5,0.9,0.5,1.7v0.5c-0.2,0-0.4-0.1-0.8-0.1
				c-0.3,0-0.7,0-1.1,0c-0.5,0-1,0.1-1.5,0.2c-0.4,0.1-0.8,0.3-1.2,0.6c-0.3,0.3-0.6,0.6-0.8,0.9c-0.2,0.4-0.3,0.8-0.3,1.3
				c0,1,0.3,1.7,0.9,2.1c0.6,0.4,1.5,0.6,2.6,0.6c0.5,0,1.1,0,1.7-0.1c0.6-0.1,1.1-0.2,1.5-0.2v-5.9c0-1.1-0.3-1.8-0.8-2.3
				C283.7,27.8,282.9,27.6,281.7,27.6z M283.9,35.7c-0.3,0.1-0.6,0.1-0.9,0.1c-0.3,0-0.7,0.1-1,0.1c-0.3,0-0.6,0-0.8-0.1
				c-0.3,0-0.5-0.1-0.8-0.2c-0.2-0.1-0.4-0.3-0.6-0.5c-0.1-0.2-0.2-0.5-0.2-0.9c0-0.6,0.2-1.1,0.7-1.4c0.5-0.3,1.2-0.5,2-0.5
				c0.3,0,0.6,0,0.8,0c0.3,0,0.5,0.1,0.7,0.1V35.7z"/>
			<path d="M291.4,27.8h-0.2c-0.7,0-1.2,0.2-1.7,0.4c-0.4,0.3-0.7,0.7-1,1.1c0-0.2,0-0.5,0-0.8c0-0.3,0-0.5-0.1-0.7
				c-0.1,0-0.2,0-0.3,0c-0.1,0-0.2,0-0.3,0c-0.1,0-0.2,0-0.3,0c-0.1,0-0.2,0-0.3,0v8.9c0.1,0,0.2,0,0.3,0c0.1,0,0.2,0,0.3,0
				c0.1,0,0.2,0,0.3,0c0.1,0,0.2,0,0.3,0v-4.6c0-1.2,0.2-2,0.7-2.5c0.5-0.5,1.1-0.8,1.9-0.8h0.2c0.1,0,0.1,0,0.2,0
				c0-0.2,0.1-0.4,0.1-0.5c0-0.2,0-0.4-0.1-0.6C291.5,27.8,291.4,27.8,291.4,27.8z"/>
			<path d="M298.8,35.6c-0.3,0.1-0.5,0.2-0.9,0.2c-0.3,0.1-0.7,0.1-1,0.1c-1,0-1.8-0.3-2.4-0.9c-0.6-0.6-0.9-1.5-0.9-2.8
				c0-0.5,0.1-1,0.2-1.5c0.1-0.4,0.3-0.8,0.6-1.2c0.3-0.3,0.6-0.6,1-0.8c0.4-0.2,0.8-0.3,1.4-0.3c0.4,0,0.8,0,1.1,0.1
				c0.4,0.1,0.7,0.1,0.9,0.2c0-0.1,0.1-0.3,0.1-0.5c0-0.2,0.1-0.4,0.1-0.5c-0.2-0.1-0.6-0.2-1-0.2c-0.4-0.1-0.8-0.1-1.3-0.1
				c-0.7,0-1.3,0.1-1.9,0.4c-0.5,0.2-1,0.6-1.4,1c-0.4,0.4-0.6,0.9-0.8,1.5c-0.2,0.6-0.3,1.2-0.3,1.8c0,1.5,0.4,2.7,1.1,3.5
				c0.8,0.8,1.9,1.2,3.3,1.2c0.5,0,0.9,0,1.2-0.1c0.4-0.1,0.7-0.2,1-0.3c0-0.1-0.1-0.3-0.1-0.5C298.9,35.9,298.8,35.7,298.8,35.6z"
				/>
			<path d="M306.5,28.7c-0.3-0.4-0.7-0.6-1.1-0.8c-0.5-0.2-1-0.3-1.6-0.3c-0.7,0-1.3,0.1-1.8,0.4c-0.5,0.2-0.9,0.6-1.2,1
				c-0.3,0.4-0.6,0.9-0.7,1.5c-0.2,0.6-0.2,1.2-0.2,1.8c0,0.7,0.1,1.3,0.3,1.9c0.2,0.6,0.4,1.1,0.8,1.5c0.4,0.4,0.8,0.7,1.4,1
				c0.6,0.2,1.2,0.3,2,0.3c0.5,0,1,0,1.5-0.1c0.5-0.1,0.9-0.2,1.2-0.3c0-0.2,0-0.3-0.1-0.5c0-0.2-0.1-0.3-0.1-0.5
				c-0.4,0.1-0.7,0.2-1.1,0.3c-0.4,0.1-0.8,0.1-1.2,0.1c-1.1,0-1.9-0.3-2.5-0.8c-0.6-0.6-0.8-1.4-0.8-2.6h6.4c0-0.1,0-0.3,0-0.4
				c0-0.2,0-0.3,0-0.4c0-0.6-0.1-1.1-0.2-1.6C307,29.5,306.8,29.1,306.5,28.7z M301.1,31.5c0.1-0.9,0.4-1.6,0.8-2.1
				c0.5-0.5,1.1-0.8,1.9-0.8c0.4,0,0.8,0.1,1.1,0.2c0.3,0.2,0.6,0.4,0.8,0.6c0.2,0.3,0.3,0.6,0.4,0.9c0.1,0.4,0.1,0.7,0.1,1.1H301.1
				z"/>
			<path d="M312.3,35.8c-0.1,0-0.2,0-0.3,0.1c-0.1,0-0.3,0-0.4,0c-0.1,0-0.2,0-0.3,0c-0.1,0-0.2-0.1-0.3-0.1
				c-0.1-0.1-0.2-0.2-0.3-0.4c-0.1-0.2-0.1-0.4-0.1-0.7V23.8c-0.1,0-0.2,0-0.3,0c-0.1,0-0.2,0-0.3,0c-0.1,0-0.2,0-0.3,0
				c-0.1,0-0.2,0-0.3,0v11.1c0,0.4,0.1,0.7,0.2,1c0.1,0.3,0.3,0.5,0.5,0.6c0.2,0.1,0.4,0.2,0.7,0.3c0.2,0.1,0.5,0.1,0.7,0.1
				c0.2,0,0.4,0,0.6,0c0.2,0,0.4-0.1,0.6-0.1c0-0.1,0-0.3-0.1-0.5C312.4,36.1,312.3,35.9,312.3,35.8z"/>
			<path d="M320,28.9c-0.3-0.4-0.7-0.7-1.2-1c-0.5-0.2-1.1-0.4-1.7-0.4c-0.7,0-1.2,0.1-1.8,0.4c-0.5,0.2-0.9,0.6-1.3,1
				c-0.3,0.4-0.6,0.9-0.7,1.5c-0.2,0.6-0.2,1.2-0.2,1.8c0,0.7,0.1,1.3,0.2,1.8c0.2,0.6,0.4,1.1,0.7,1.5c0.3,0.4,0.8,0.7,1.3,1
				c0.5,0.2,1.1,0.4,1.8,0.4c0.7,0,1.2-0.1,1.7-0.4c0.5-0.2,0.9-0.6,1.2-1c0.3-0.4,0.6-0.9,0.8-1.5c0.2-0.6,0.3-1.2,0.3-1.8
				c0-0.7-0.1-1.3-0.3-1.8C320.6,29.8,320.3,29.3,320,28.9z M319.1,34.9c-0.5,0.7-1.2,1-2.1,1c-0.9,0-1.6-0.3-2.1-1
				c-0.5-0.7-0.7-1.5-0.7-2.7c0-1.1,0.2-2,0.7-2.7c0.5-0.7,1.2-1,2.1-1c0.9,0,1.6,0.3,2.1,1c0.5,0.7,0.7,1.5,0.7,2.7
				C319.8,33.4,319.5,34.3,319.1,34.9z"/>
			<path d="M327.1,27.6c-0.4,0-0.7,0.1-1.1,0.2c-0.3,0.1-0.6,0.3-0.9,0.4c-0.3,0.2-0.5,0.4-0.7,0.6c-0.2,0.2-0.3,0.4-0.5,0.6
				c0-0.2,0-0.5,0-0.8c0-0.3,0-0.6-0.1-0.8c-0.1,0-0.2,0-0.3,0c-0.1,0-0.2,0-0.3,0c-0.1,0-0.2,0-0.3,0c-0.1,0-0.2,0-0.3,0v8.9
				c0.1,0,0.2,0,0.3,0c0.1,0,0.2,0,0.3,0c0.1,0,0.2,0,0.3,0c0.1,0,0.2,0,0.3,0v-4.4c0-0.6,0.1-1.1,0.2-1.6c0.2-0.5,0.4-0.8,0.6-1.1
				c0.3-0.3,0.6-0.5,0.9-0.7c0.4-0.2,0.7-0.2,1.2-0.2c0.6,0,1.1,0.2,1.4,0.6c0.3,0.4,0.5,1.1,0.5,2.1v5.3c0.1,0,0.2,0,0.3,0
				c0.1,0,0.2,0,0.3,0c0.1,0,0.2,0,0.3,0c0.1,0,0.2,0,0.3,0v-5.6c0-1.1-0.2-2-0.7-2.6C328.9,27.9,328.1,27.6,327.1,27.6z"/>
			<path d="M337.5,28.3c-0.5-0.5-1.4-0.7-2.5-0.7c-0.5,0-0.9,0-1.4,0.1c-0.4,0.1-0.8,0.1-1.1,0.2c0,0.2,0,0.4,0.1,0.6
				s0.1,0.3,0.1,0.5c0.3-0.1,0.6-0.2,1-0.2c0.4-0.1,0.8-0.1,1.3-0.1c0.7,0,1.2,0.2,1.6,0.5c0.4,0.4,0.5,0.9,0.5,1.7v0.5
				c-0.2,0-0.4-0.1-0.8-0.1c-0.3,0-0.7,0-1.1,0c-0.5,0-1,0.1-1.5,0.2c-0.4,0.1-0.8,0.3-1.2,0.6c-0.3,0.3-0.6,0.6-0.8,0.9
				c-0.2,0.4-0.3,0.8-0.3,1.3c0,1,0.3,1.7,0.9,2.1c0.6,0.4,1.5,0.6,2.6,0.6c0.5,0,1.1,0,1.7-0.1c0.6-0.1,1.1-0.2,1.5-0.2v-5.9
				C338.4,29.6,338.1,28.8,337.5,28.3z M337.2,35.7c-0.3,0.1-0.6,0.1-0.9,0.1c-0.3,0-0.7,0.1-1,0.1c-0.3,0-0.6,0-0.8-0.1
				c-0.3,0-0.5-0.1-0.8-0.2c-0.2-0.1-0.4-0.3-0.6-0.5c-0.1-0.2-0.2-0.5-0.2-0.9c0-0.6,0.2-1.1,0.7-1.4c0.5-0.3,1.2-0.5,2-0.5
				c0.3,0,0.6,0,0.8,0c0.3,0,0.5,0.1,0.7,0.1V35.7z"/>
		</g>
		<g>
			<path class="st4" d="M273.9,39.7c-0.2,0-0.4,0-0.7,0c-0.3,0-0.5,0-0.7,0c-0.2,0-0.5,0-0.7,0.1l-4,12.6c0.4,0.1,0.8,0.1,1.3,0.1
				c0.4,0,0.8,0,1.2-0.1l0.7-2.5h4.2l0.7,2.5c0.4,0.1,0.9,0.1,1.3,0.1c0.5,0,0.9,0,1.4-0.1l-3.9-12.6
				C274.3,39.7,274.1,39.7,273.9,39.7z M271.6,47.7l1.5-5.3l1.5,5.3H271.6z"/>
			<path class="st4" d="M285.4,50.2c-0.2,0.1-0.4,0.1-0.5,0.2c-0.1,0-0.3,0.1-0.4,0.1c-0.1,0-0.3,0-0.4,0c-0.1,0-0.3,0-0.5,0
				c-0.7,0-1.2-0.2-1.6-0.6c-0.4-0.4-0.6-1.1-0.6-2.1c0-0.9,0.2-1.6,0.6-2c0.4-0.5,0.9-0.7,1.6-0.7c0.3,0,0.6,0,0.9,0.1
				c0.3,0,0.6,0.1,0.9,0.2c0.2-0.3,0.3-0.6,0.3-1c0.1-0.3,0.1-0.6,0.1-0.9c-0.2-0.1-0.5-0.2-0.7-0.2c-0.2-0.1-0.4-0.1-0.6-0.1
				c-0.2,0-0.4-0.1-0.6-0.1c-0.2,0-0.5,0-0.7,0c-0.7,0-1.4,0.1-1.9,0.4c-0.5,0.2-1,0.6-1.4,1c-0.4,0.4-0.6,0.9-0.8,1.5
				c-0.2,0.6-0.3,1.2-0.3,1.9c0,0.7,0.1,1.3,0.3,1.9c0.2,0.6,0.5,1.1,0.8,1.5c0.4,0.4,0.8,0.7,1.4,1c0.6,0.2,1.2,0.4,2,0.4
				c0.4,0,0.9,0,1.3-0.1c0.4-0.1,0.8-0.2,1.3-0.4c0-0.4,0-0.8-0.1-1.1C285.7,50.7,285.6,50.4,285.4,50.2z"/>
			<path class="st4" d="M292.4,50.3c-0.1,0-0.3,0-0.4,0.1c-0.2,0-0.3,0-0.5,0c-0.2,0-0.4,0-0.6-0.1c-0.2,0-0.3-0.1-0.4-0.3
				c-0.1-0.1-0.2-0.3-0.3-0.5c-0.1-0.2-0.1-0.5-0.1-0.9v-3.6h2.1c0-0.2,0.1-0.4,0.1-0.5c0-0.2,0-0.3,0-0.5c0-0.2,0-0.3,0-0.4
				c0-0.1,0-0.3-0.1-0.5h-2.1v-2.6h-0.4l-3.3,4.2l0.1,0.4h1.1v4.1c0,1.1,0.3,1.9,0.8,2.4c0.6,0.5,1.4,0.7,2.4,0.7
				c0.6,0,1.1-0.1,1.7-0.2c0-0.1,0-0.2,0-0.3c0-0.1,0-0.2,0-0.3c0-0.2,0-0.4,0-0.6C292.5,50.8,292.5,50.6,292.4,50.3z"/>
			<path class="st4" d="M294.6,41.8c0.2,0,0.4,0,0.6,0c0.2,0,0.4,0,0.6,0c0.2,0,0.4,0,0.6-0.1c0-0.2,0.1-0.4,0.1-0.6s0-0.4,0-0.6
				c0-0.2,0-0.4,0-0.6c0-0.2,0-0.4-0.1-0.6c-0.2,0-0.4-0.1-0.6-0.1c-0.2,0-0.4,0-0.6,0c-0.2,0-0.4,0-0.6,0c-0.2,0-0.4,0-0.6,0.1
				c-0.1,0.4-0.1,0.8-0.1,1.2c0,0.4,0,0.8,0.1,1.2C294.2,41.8,294.4,41.8,294.6,41.8z"/>
			<path class="st4" d="M293.1,44.2c0,0.2,0,0.3,0,0.5c0,0.2,0,0.3,0.1,0.5h1.2v7.2c0.4,0.1,0.8,0.1,1.2,0.1c0.4,0,0.8,0,1.2-0.1v-9
				h-3.6C293.1,43.6,293.1,43.9,293.1,44.2z"/>
			<path class="st4" d="M305.6,43.2c-0.2,0-0.4,0-0.7,0c-0.2,0-0.4,0-0.6,0.1l-1.9,6.7l-2-6.7c-0.2,0-0.4-0.1-0.7-0.1
				c-0.2,0-0.5,0-0.7,0c-0.2,0-0.4,0-0.6,0c-0.2,0-0.5,0-0.8,0.1l3.4,9c0.2,0,0.4,0.1,0.6,0.1c0.2,0,0.4,0,0.6,0c0.2,0,0.4,0,0.6,0
				c0.2,0,0.5,0,0.7-0.1l3.4-9c-0.3-0.1-0.6-0.1-0.8-0.1C306,43.2,305.8,43.2,305.6,43.2z"/>
			<path class="st4" d="M313.8,43.9c-0.7-0.6-1.6-0.9-2.8-0.9c-0.4,0-0.9,0-1.4,0.1c-0.5,0.1-1,0.2-1.5,0.4c0,0.4,0,0.7,0.1,1
				c0.1,0.3,0.2,0.6,0.4,0.9c0.7-0.2,1.4-0.4,2-0.4c0.3,0,0.6,0,0.8,0.1c0.2,0,0.4,0.1,0.6,0.2c0.2,0.1,0.3,0.2,0.4,0.4
				c0.1,0.2,0.1,0.4,0.1,0.7v0.2c-0.4,0-0.8-0.1-1.1-0.1c-0.5,0-0.9,0.1-1.4,0.1c-0.5,0.1-0.9,0.3-1.3,0.5c-0.4,0.2-0.7,0.5-0.9,0.9
				c-0.2,0.4-0.4,0.9-0.4,1.4c0,0.6,0.1,1,0.3,1.4c0.2,0.4,0.5,0.7,0.8,0.9c0.4,0.2,0.8,0.4,1.3,0.5c0.5,0.1,1,0.2,1.6,0.2
				c0.7,0,1.4-0.1,2-0.2c0.6-0.1,1.1-0.2,1.5-0.4v-5.3C314.8,45.5,314.5,44.5,313.8,43.9z M312.4,50.5c-0.1,0-0.3,0-0.5,0.1
				c-0.2,0-0.4,0-0.5,0c-0.2,0-0.3,0-0.5,0c-0.2,0-0.4-0.1-0.6-0.1c-0.2-0.1-0.3-0.2-0.5-0.4c-0.1-0.2-0.2-0.4-0.2-0.7
				c0-0.5,0.2-0.8,0.5-1c0.3-0.2,0.8-0.3,1.4-0.3c0.1,0,0.3,0,0.4,0c0.2,0,0.3,0,0.5,0.1V50.5z"/>
			<path class="st4" d="M241.9,45.9l-1.7,5.9c2.1,1.1,4.5,1.7,7.1,1.7c2.4,0,4.6-0.5,6.6-1.5l-1.7-6.1H241.9z"/>
			<path class="st4" d="M251.6,23.3l7.7,24.5c2.2-2.7,3.5-6,3.5-9.7C262.7,31.1,258,25.1,251.6,23.3z"/>
			<polygon class="st4" points="247.1,27.6 243.4,40.7 250.7,40.7 			"/>
			<path class="st4" d="M231.9,38.1c0,3.7,1.3,7.1,3.5,9.7l7.7-24.5C236.6,25.1,231.9,31,231.9,38.1z"/>
		</g>
	</g>
</g>
<g id="Guies" class="st5">
	<g>
	</g>
	<g class="st6">
	</g>
</g>
</svg>
