<svg id="Capa_1" data-name="Capa 1" xmlns="http://www.w3.org/2000/svg" viewBox="0 0 191 40" height="40"
          width="auto" >
  <defs>
    <style>
      .cls-1 {
        fill: #c9c7c6;
      }

      .cls-2 {
        fill: #151615;
      }

      .cls-3 {
        fill: #e41331;
      }

      .cls-4 {
        fill: #fff;
      }

      .cls-5 {
        fill: #1d1d1b;
      }

      .cls-6 {
        fill: #025e85;
      }
    </style>
  </defs>
  <title>barcelona-activa</title>
  <path class="cls-1" d="M170.91561,40H98.00422V0h73.08016A19.95238,19.95238,0,0,1,191,19.91561h0A20.0246,20.0246,0,0,1,170.91561,40Z"/>
  <path class="cls-2" d="M102.44726,40H17.55274V0h84.72574a19.95238,19.95238,0,0,1,19.91561,19.91561h0A19.74045,19.74045,0,0,1,102.44726,40Z"/>
  <path class="cls-3" d="M20.75949,40H0V0H20.75949A19.95237,19.95237,0,0,1,40.6751,19.91561h0A19.98888,19.98888,0,0,1,20.75949,40Z"/>
  <g>
    <path class="cls-4" d="M50.56552,12.26671l-.89331,2.6422H51.457Zm1.65291,4.86818-.408-1.20088H49.3189l-.40629,1.20088h-1.1489l2.20091-6.26541h1.2457l2.20091,6.26541Z"/>
    <path class="cls-4" d="M54.15384,10.74477h1.18389v1.14081H54.15384Zm-.13179,8.30854a3.09455,3.09455,0,0,1-.3893-.01708,3.5984,3.5984,0,0,1-.504-.09772V18.004a4.923,4.923,0,0,0,.53991.05116.46538.46538,0,0,0,.52918-.49419V12.54122h1.113v5.2314a1.18091,1.18091,0,0,1-1.28877,1.28069"/>
    <path class="cls-4" d="M59.353,17.13489l-.08164-.6a1.41771,1.41771,0,0,1-1.31568.71662,1.51972,1.51972,0,0,1-1.59193-1.64575V12.54122h1.10491V15.3591c0,.539.21251.87541.79551.87541a.76657.76657,0,0,0,.56682-.2296,1.41366,1.41366,0,0,0,.3354-1.035V12.54122h1.105v4.59367Z"/>
    <path class="cls-4" d="M64.01032,17.13489V14.317c0-.53817-.17578-.86732-.76051-.86732a.86528.86528,0,0,0-.79551.583,3.20841,3.20841,0,0,0-.14887,1.22962v1.87259H61.1996V12.54122H62.127l.08072.59015a1.58738,1.58738,0,0,1,2.90669.938v3.06548Z"/>
    <path class="cls-4" d="M67.89105,17.19771a1.26147,1.26147,0,0,1-1.3874-1.41441V13.4506h-.8395v-.91122h.8395V11.37349l1.10316-.27359v1.43948h1.15965v.91122H67.60681v2.23591c0,.35422.15962.504.51384.504a5.59746,5.59746,0,0,0,.71661-.04482v.92821a3.7052,3.7052,0,0,1-.94621.1238"/>
    <path class="cls-4" d="M72.40675,15.09452l-1.16414.088a.64517.64517,0,0,0-.66271.6008.605.605,0,0,0,.65288.57675,1.03859,1.03859,0,0,0,1.174-1.05385Zm.93,2.11127a.72139.72139,0,0,1-.77842-.644,1.61526,1.61526,0,0,1-1.39641.68787,1.44992,1.44992,0,1,1-.10763-2.8807l1.35241-.096v-.2825c0-.43494-.14887-.72552-.77759-.72552-.51118,0-.8125.2296-.83941.65288H69.72066c.06374-1.035.88615-1.49238,1.9085-1.49238a1.65841,1.65841,0,0,1,1.72473.93722,2.53383,2.53383,0,0,1,.13178.92738V15.995c0,.21261.0709.29242.25743.29242a.65958.65958,0,0,0,.1417-.018v.8135a1.12867,1.12867,0,0,1-.548.12288"/>
    <path class="cls-4" d="M80.05525,17.13489V14.2811c0-.56591-.15254-.89239-.7077-.89239-.62864,0-.90223.661-.90223,1.23587v2.51031H77.34941V14.2811c0-.56591-.14978-.89239-.70761-.89239-.62607,0-.9104.661-.9104,1.23587v2.51031H74.63549V12.54122h.92013l.08789.609a1.47244,1.47244,0,0,1,1.30944-.7247,1.36043,1.36043,0,0,1,1.31568.75161,1.53015,1.53015,0,0,1,1.38749-.75161,1.43021,1.43021,0,0,1,1.495,1.60718v3.10221Z"/>
    <path class="cls-4" d="M84.75656,13.5744a.91864.91864,0,0,0-.69687-.2655.94623.94623,0,0,0-.7686.35247,1.13918,1.13918,0,0,0-.23951.71662h1.98931a1.19,1.19,0,0,0-.28433-.80359m1.38024,1.6081H83.0615a1.20846,1.20846,0,0,0,.33539.90222.96893.96893,0,0,0,.67988.28249.86206.86206,0,0,0,.67263-.22059.849.849,0,0,0,.2206-.38931h1.06192a1.83308,1.83308,0,0,1-.3893.8485,1.97369,1.97369,0,0,1-1.54886.64388,2.002,2.002,0,0,1-1.44838-.565,2.4836,2.4836,0,0,1-.70679-1.83677,2.57993,2.57993,0,0,1,.6628-1.84035,1.99974,1.99974,0,0,1,1.46546-.58208,1.94289,1.94289,0,0,1,1.68074.84933A2.56323,2.56323,0,0,1,86.144,14.873s-.00717.21169-.00717.3095"/>
    <path class="cls-4" d="M89.787,17.13489V14.317c0-.53817-.1767-.86732-.76051-.86732a.8698.8698,0,0,0-.79551.583,3.20667,3.20667,0,0,0-.14887,1.22962v1.87259H86.9763V12.54122h.92913l.07806.59015a1.58908,1.58908,0,0,1,2.90936.938v3.06548Z"/>
    <path class="cls-4" d="M93.66683,17.19771a1.2608,1.2608,0,0,1-1.38648-1.41441V13.4506h-.8395v-.91122h.8395V11.37349l1.10582-.27359v1.43948h1.15689v.91122H93.38617v2.23591c0,.35422.1587.504.513.504a5.60975,5.60975,0,0,0,.71478-.04482v.92821a3.69626,3.69626,0,0,1-.94713.1238"/>
    <g>
      <path class="cls-4" d="M99.384,13.3a.90788.90788,0,0,0-.7426.3623,1.8424,1.8424,0,0,0-.2915,1.113,1.86941,1.86941,0,0,0,.2915,1.12291.91012.91012,0,0,0,.7426.36231c.86549,0,1.043-.82058,1.043-1.48522,0-.6627-.17753-1.47529-1.043-1.47529m1.14082,3.7821-.0709-.50411a1.49765,1.49765,0,0,1-1.29143.61174,1.74867,1.74867,0,0,1-1.122-.39022,2.4703,2.4703,0,0,1-.81351-2.00713,2.521,2.521,0,0,1,.82242-2.05021,1.73309,1.73309,0,0,1,1.122-.37038,1.55309,1.55309,0,0,1,1.20272.434v-2.104h1.104v6.38031Z"/>
      <path class="cls-4" d="M105.18213,13.52059a.9185.9185,0,0,0-.6977-.2645.94319.94319,0,0,0-.76777.35239,1.12344,1.12344,0,0,0-.23942.71661h1.9883a1.20322,1.20322,0,0,0-.28341-.8045m1.37942,1.609h-3.07623a1.21975,1.21975,0,0,0,.33631.90222.97676.97676,0,0,0,.67979.2825.86171.86171,0,0,0,.67272-.22152.8354.8354,0,0,0,.2206-.38747h1.06009a1.81375,1.81375,0,0,1-.38747.84758,1.97663,1.97663,0,0,1-1.54711.6448,2.00038,2.00038,0,0,1-1.4493-.56591,2.48673,2.48673,0,0,1-.70762-1.83852,2.57443,2.57443,0,0,1,.66372-1.8386,1.99269,1.99269,0,0,1,1.46721-.58474,1.94124,1.94124,0,0,1,1.67807.85024,2.57461,2.57461,0,0,1,.39822,1.5991s-.009.21251-.009.31032"/>
    </g>
    <g>
      <path class="cls-4" d="M51.5576,25.05973H49.43233v2.56851h2.075c.77942,0,1.62891-.28713,1.62891-1.22537,0-.98974-.69067-1.34314-1.57864-1.34314m-.05027-3.729h-2.075v2.32108H51.547c.75422,0,1.3934-.274,1.3934-1.14733,0-.888-.67888-1.17375-1.4331-1.17375m2.39777,7.18411a3.868,3.868,0,0,1-2.46268.62725H47.76371V19.883h3.67871a3.89554,3.89554,0,0,1,2.13719.50815,2.3976,2.3976,0,0,1,1.06792,2.00873,2.09934,2.09934,0,0,1-1.13282,1.95589,2.26275,2.26275,0,0,1,1.33256,2.08679,2.48047,2.48047,0,0,1-.94217,2.07229"/>
      <path class="cls-4" d="M60.08754,26.11437l-1.71767.13239a.95325.95325,0,0,0-.98187.88662.89294.89294,0,0,0,.96345.84826,1.5335,1.5335,0,0,0,1.73609-1.55357Zm1.37227,3.11772a1.06424,1.06424,0,0,1-1.14855-.95017,2.38377,2.38377,0,0,1-2.06049,1.0163,2.13993,2.13993,0,1,1-.15868-4.25177l1.99545-.14417v-.41682c0-.63918-.21965-1.06792-1.14732-1.06792-.75423,0-1.19882.33741-1.23852.96331H56.12427c.09391-1.527,1.30343-2.202,2.81595-2.202A2.44985,2.44985,0,0,1,61.485,23.55779a3.7633,3.7633,0,0,1,.19446,1.37226v2.51567c0,.31356.10461.43.37589.43a.98028.98028,0,0,0,.20908-.02507v1.1976a1.60517,1.60517,0,0,1-.80463.18388"/>
      <path class="cls-4" d="M67.07991,23.79465a1.71148,1.71148,0,0,0-1.74681,1.91619v3.41677H63.687V22.34826h1.38541l.14161,1.01508a1.95671,1.95671,0,0,1,1.91618-1.109,3.55071,3.55071,0,0,1,.51343.0397v1.5655a2.82516,2.82516,0,0,0-.5637-.06491"/>
      <path class="cls-4" d="M73.79828,28.20387a2.96928,2.96928,0,0,1-2.32108,1.06792,3.08588,3.08588,0,0,1-2.36078-1.06792,3.89167,3.89167,0,0,1-.74365-2.47989,3.88283,3.88283,0,0,1,.74365-2.47582,3.0879,3.0879,0,0,1,2.36078-1.0705,2.96247,2.96247,0,0,1,2.32108,1.0705,2.66508,2.66508,0,0,1,.52265,1.47281H72.71451a1.29531,1.29531,0,0,0-.19459-.62726,1.188,1.188,0,0,0-1.04272-.50679,1.32468,1.32468,0,0,0-.99244.41546,2.53591,2.53591,0,0,0-.4553,1.7216,2.50479,2.50479,0,0,0,.4553,1.711,1.3361,1.3361,0,0,0,.99244.42752,1.18781,1.18781,0,0,0,1.04272-.50692,1.28491,1.28491,0,0,0,.19459-.6259h1.60642a2.68369,2.68369,0,0,1-.52265,1.47416"/>
      <path class="cls-4" d="M79.458,23.8727a1.35843,1.35843,0,0,0-1.02809-.39025,1.39858,1.39858,0,0,0-1.13811.51993,1.67027,1.67027,0,0,0-.34933,1.05735h2.9337a1.78238,1.78238,0,0,0-.41817-1.187m2.03529,2.37406H76.95692a1.78259,1.78259,0,0,0,.49364,1.33121,1.43674,1.43674,0,0,0,1.00437.41682,1.19473,1.19473,0,0,0,1.31671-.89854h1.56279a2.70386,2.70386,0,0,1-.57292,1.25058,2.90285,2.90285,0,0,1-2.28137.95139,2.94812,2.94812,0,0,1-2.1372-.835,3.67084,3.67084,0,0,1-1.04665-2.71269,3.81531,3.81531,0,0,1,.97781-2.71282,2.95013,2.95013,0,0,1,2.16633-.86277,2.87409,2.87409,0,0,1,2.47976,1.25451,3.82269,3.82269,0,0,1,.585,2.35943s-.01192.31356-.01192.45787"/>
      <path class="cls-4" d="M84.58318,29.207a1.64476,1.64476,0,0,1-1.85128-1.82621V19.69913h1.64219V27.107c0,.393.09391.65233.65368.65233.14025,0,.18388-.01328.27386-.01328v1.371a2.72363,2.72363,0,0,1-.71845.09"/>
      <path class="cls-4" d="M90.43878,24.03152a1.416,1.416,0,0,0-1.02821-.434,1.43536,1.43536,0,0,0-1.03351.434,2.50385,2.50385,0,0,0-.479,1.7071,2.50617,2.50617,0,0,0,.479,1.7071,1.43843,1.43843,0,0,0,1.03351.43,1.41894,1.41894,0,0,0,1.02821-.43,2.48836,2.48836,0,0,0,.4843-1.7071,2.48606,2.48606,0,0,0-.4843-1.7071m1.34313,4.2107a3.19206,3.19206,0,0,1-4.74405,0,3.67919,3.67919,0,0,1-.79664-2.5036,3.67567,3.67567,0,0,1,.79664-2.505,3.19453,3.19453,0,0,1,4.74405,0,3.6958,3.6958,0,0,1,.79786,2.505,3.69938,3.69938,0,0,1-.79786,2.5036"/>
      <path class="cls-4" d="M98.03049,29.12761V24.96976c0-.79664-.26071-1.28229-1.12348-1.28229a1.28149,1.28149,0,0,0-1.17239.86276,4.73488,4.73488,0,0,0-.221,1.81293v2.76445H93.882V22.34826h1.37227l.115.87469a2.34316,2.34316,0,0,1,4.29282,1.38162v4.523Z"/>
      <path class="cls-4" d="M105.32191,26.11437l-1.72173.13239a.952.952,0,0,0-.97781.88662.89184.89184,0,0,0,.96724.84826,1.53414,1.53414,0,0,0,1.7323-1.55357Zm1.3682,3.11772a1.066,1.066,0,0,1-1.14854-.95017,2.37186,2.37186,0,0,1-2.05779,1.0163,2.13994,2.13994,0,1,1-.15881-4.25177l1.99694-.14417v-.41682c0-.63918-.21979-1.06792-1.14732-1.06792-.75558,0-1.199.33741-1.23866.96331h-1.57742c.09011-1.527,1.30356-2.202,2.81608-2.202a2.45289,2.45289,0,0,1,2.54466,1.37891,3.7636,3.7636,0,0,1,.19458,1.37226v2.51567c0,.31356.10448.43.37847.43a1.08349,1.08349,0,0,0,.21031-.02507v1.1976a1.65036,1.65036,0,0,1-.8125.18388"/>
    </g>
  </g>
  <path class="cls-4" d="M20.92641,34.13358,31.83148,23.05011,20.92641,11.96144,10.02152,23.05011ZM31.99192,23.05011a32.44424,32.44424,0,0,1-4.98652,6.05838,33.63734,33.63734,0,0,1-6.079,5.18656,31.69129,31.69129,0,0,1-5.95459-5.07431,33.88023,33.88023,0,0,1-5.10561-6.17063,32.2591,32.2591,0,0,1,4.99005-6.05478,33.761,33.761,0,0,1,6.07015-5.18656,31.43469,31.43469,0,0,1,5.95813,5.0673,34.13107,34.13107,0,0,1,5.10738,6.174M20.92641,34.13358,31.83148,23.05011,20.92641,11.96144,10.02152,23.05011ZM31.99192,23.05011a32.44424,32.44424,0,0,1-4.98652,6.05838,33.63734,33.63734,0,0,1-6.079,5.18656,31.69129,31.69129,0,0,1-5.95459-5.07431,33.88023,33.88023,0,0,1-5.10561-6.17063,32.2591,32.2591,0,0,1,4.99005-6.05478,33.761,33.761,0,0,1,6.07015-5.18656,31.43469,31.43469,0,0,1,5.95813,5.0673,34.13107,34.13107,0,0,1,5.10738,6.174m-1.061-.15608h-.99741v-1.0191Zm-2.10525-2.14327V22.894H27.72134V19.62641ZM26.617,18.50727V22.894h-1.1059V17.3831Zm-2.212-2.24852V22.894H23.30076V15.1344Zm-2.21038-2.2487v8.884H21.08861V12.89109ZM10.93076,23.215H11.9333v1.0191Zm2.10684,2.13986V23.215h1.10608V26.4792Zm2.20685,2.2487V23.215h1.10784V28.7279Zm2.21214,2.24852V23.215H18.5609v7.75622Zm2.20508,2.24349V23.215h1.10784v9.99953ZM21.08861,23.215h2.21215v2.79759H21.08861Zm9.84229,0-7.63014,7.76143-2.21215,2.2381v-6.081h2.21215v3.84291l1.10943-1.13477V27.13351h2.66412l1.10607-1.12435H24.41019V23.215Zm-20.00014-.321,6.52583-6.64049V18.9721H14.78894l-1.1043,1.12435h3.77195V22.894Zm7.63014-7.76484,2.20861-2.2381v6.081H18.5609ZM20.76951,22.894H18.5609V20.09824h2.20861Zm11.77809.16147a.44951.44951,0,1,1,.899,0,.44955.44955,0,1,1-.899,0m-24.13766,0a.45118.45118,0,1,1,.90235,0,.4512.4512,0,1,1-.90235,0M20.48133,35.32115a.44778.44778,0,1,1,.89546,0,.44788.44788,0,1,1-.89546,0M18.1554,6.92755a1.35867,1.35867,0,0,0-.41239-.065,1.00759,1.00759,0,0,0-1.11473.84721.77268.77268,0,0,0,.28641.57529l-.48819.49823a1.43758,1.43758,0,0,1-.49526-1.06993A1.69469,1.69469,0,0,1,17.743,6.15918a1.94942,1.94942,0,0,1,.7299.13345,1.91023,1.91023,0,0,1,1.45627-.6315,1.992,1.992,0,0,1,.99723.25612,2.03,2.03,0,0,1,1.00095-.25612,1.90414,1.90414,0,0,1,1.4545.6315,1.953,1.953,0,0,1,.73679-.13345,1.69635,1.69635,0,0,1,1.81,1.55415,1.46769,1.46769,0,0,1-.50039,1.06993l-.4866-.49823a.76484.76484,0,0,0,.29-.57529,1.01032,1.01032,0,0,0-1.113-.84721,1.32776,1.32776,0,0,0-.41415.065,1.42511,1.42511,0,0,1-.25532,1.13135l-.49862-.51045a.64659.64659,0,0,0,.088-.33155,1.00315,1.00315,0,0,0-1.11119-.85243,1.40846,1.40846,0,0,0-.63856.15267V7.53965h-.69527V6.53636a1.29931,1.29931,0,0,0-.66947-.17189,1.00281,1.00281,0,0,0-1.10784.85243.72246.72246,0,0,0,.08975.33155l-.50215.51045a1.40825,1.40825,0,0,1-.27952-.842,1.31711,1.31711,0,0,1,.0311-.28935m-.62124,3.72364.38995.59109a6.91779,6.91779,0,0,1,6.01326,0l.38836-.59109a7.873,7.873,0,0,0-6.79157,0M20.464,4.69986a.47031.47031,0,1,1,.46946.47722.47345.47345,0,0,1-.46946-.47722m-2.923,5.37245a.537.537,0,0,1-.40886-.34017.52692.52692,0,0,1,.46752-.24391.54623.54623,0,0,1,.4108.34036.5492.5492,0,0,1-.46946.24372m-.326-.86822a.53213.53213,0,0,0-.44349-.28935.54847.54847,0,0,0-.07933.52966.52571.52571,0,0,0,.43995.28774.53975.53975,0,0,0,.08287-.528m2.09818.34736a.54765.54765,0,0,1-.33306-.41741.54991.54991,0,0,1,.509-.14207.5335.5335,0,0,1,.326.41741.52328.52328,0,0,1-.502.14207m-.46769.10525a.57987.57987,0,0,0,.13463-.52266.53074.53074,0,0,0-.51946.08244.53976.53976,0,0,0-.13446.51566.54554.54554,0,0,0,.51929-.07544m.32263-1.0191A.52.52,0,0,0,18.7989,8.257a.548.548,0,0,0-.18976.49985.53764.53764,0,0,0,.3744.37718.54164.54164,0,0,0,.18464-.49644M24.298,10.07231a.53419.53419,0,0,0,.41081-.34017.475.475,0,0,0-.8732.09645.54172.54172,0,0,0,.46239.24372m.32617-.86822a.54934.54934,0,0,1,.44172-.28935.54562.54562,0,0,1,.08287.52966.53833.53833,0,0,1-.43995.28774.549.549,0,0,1-.08464-.528m-2.09465.34736A.53589.53589,0,0,0,22.8608,9.134a.48077.48077,0,0,0-.84033.27534.541.541,0,0,0,.509.14207m.46752.10525A.57128.57128,0,0,1,22.8608,9.134a.53133.53133,0,0,1,.52106.08244.55143.55143,0,0,1,.1311.51566A.53747.53747,0,0,1,22.997,9.6567M22.6744,8.6376A.53075.53075,0,0,1,23.047,8.257a.55972.55972,0,0,1,.18305.49985.53378.53378,0,0,1-.36929.37718.53508.53508,0,0,1-.1864-.49644M20.704,9.40237a.54339.54339,0,0,0,.23641-.47362.51422.51422,0,0,0-.52123-.028.55254.55254,0,0,0-.24153.477.53061.53061,0,0,0,.52635.0246m.47618,0a.55317.55317,0,0,1-.23977-.47362.52956.52956,0,0,1,.52972-.028.55429.55429,0,0,1,.238.477.53381.53381,0,0,1-.52795.0246m-.52459-.92085a.54541.54541,0,0,1,.28482-.44722.49.49,0,0,1,0,.89445.55032.55032,0,0,1-.28482-.44723"/>
  <g>
    <path class="cls-5" d="M146.886,18.55279c.09135.01279.21062.02421.36208.03226.14981.01142.30932.01609.47591.01609a4.04476,4.04476,0,0,0,.73517-.06713,2.01493,2.01493,0,0,0,.64017-.23111,1.29179,1.29179,0,0,0,.44668-.43389,1.24749,1.24749,0,0,0,.16824-.673,1.44081,1.44081,0,0,0-.14369-.67711,1.22651,1.22651,0,0,0-.39468-.44737,1.62467,1.62467,0,0,0-.58707-.24989,3.23856,3.23856,0,0,0-.72071-.07855h-.9821Zm.91455-3.43445a1.59331,1.59331,0,0,0,1.13989-.346,1.197,1.197,0,0,0,.36139-.90409,1.13924,1.13924,0,0,0-.38017-.8706,1.727,1.727,0,0,0-1.19767-.35059c-.16659,0-.3261.00605-.47591.01809-.15146.01348-.27073.02559-.36208.03831v2.41486Zm-1.57687-2.94346c.06418-.00543.15421-.01548.2741-.02758.11852-.0141.24481-.02683.37914-.03962.135-.01342.27073-.02153.40878-.02889.13736-.00605.26159-.00943.3704-.00943a2.93717,2.93717,0,0,1,1.74113.43864,1.56285,1.56285,0,0,1,.60523,1.36027,1.574,1.574,0,0,1-.09038.54339,1.66307,1.66307,0,0,1-.24549.442,1.47158,1.47158,0,0,1-.36071.33182,1.67267,1.67267,0,0,1-.4279.20222,2.20139,2.20139,0,0,1,.57668.15848,1.56718,1.56718,0,0,1,.49607.33656,1.63531,1.63531,0,0,1,.34592.538,2.08008,2.08008,0,0,1,.13034.77519,1.73348,1.73348,0,0,1-.78393,1.52074,2.64876,2.64876,0,0,1-.87623.36944,4.71347,4.71347,0,0,1-1.10061.12023c-.10242,0-.218-.00467-.34592-.01073-.129-.00536-.25966-.01279-.39028-.02283q-.197-.01414-.38422-.03832c-.126-.01609-.23311-.03019-.32212-.043Z"/>
    <path class="cls-5" d="M154.23154,16.70622c-.1095-.01472-.24583-.02751-.40837-.04361-.16322-.01616-.31943-.02421-.46683-.02421a1.96691,1.96691,0,0,0-1.11575.26936.87687.87687,0,0,0-.39495.76914.94886.94886,0,0,0,.12023.50913.81334.81334,0,0,0,.313.29488,1.30059,1.30059,0,0,0,.42315.133,2.97089,2.97089,0,0,0,.46147.03356,5.03991,5.03991,0,0,0,.55887-.02751c.17231-.01885.34193-.04437.50914-.07793Zm0-.85574a1.25285,1.25285,0,0,0-.29859-.929,1.21288,1.21288,0,0,0-.88428-.29351,4.27321,4.27321,0,0,0-.70332.053,4.41723,4.41723,0,0,0-.56691.12965,1.00439,1.00439,0,0,1-.08261-.24989,1.59323,1.59323,0,0,1-.03295-.30767,3.893,3.893,0,0,1,.616-.12959,5.29287,5.29287,0,0,1,.75-.0531,2.0163,2.0163,0,0,1,1.38537.40844,1.65024,1.65024,0,0,1,.45177,1.28364v3.24234c-.22334.045-.49641.088-.81784.1344a6.792,6.792,0,0,1-.91283.06713,2.46371,2.46371,0,0,1-1.40993-.35533,1.3063,1.3063,0,0,1-.51457-1.15537,1.53853,1.53853,0,0,1,.15016-.68852,1.44324,1.44324,0,0,1,.41242-.50776,1.836,1.836,0,0,1,.63447-.31373,3.00747,3.00747,0,0,1,.814-.10613c.23043,0,.4299.00942.59588.02421.16652.01747.30423.03219.41373.045Z"/>
    <path class="cls-5" d="M156.1493,14.186a1.439,1.439,0,0,1,.14844-.0141c.04773-.00337.0954-.00537.13977-.00537.051,0,.09939.002.14437.00537.045.00131.092.00736.14445.0141.01211.11556.02215.2512.0282.40706.00674.15848.01073.30093.01073.42921a1.746,1.746,0,0,1,.538-.60048,1.54567,1.54567,0,0,1,.9142-.24721h.10077a.82581.82581,0,0,1,.11962.01142,1.83209,1.83209,0,0,1,.03088.3076,1.519,1.519,0,0,1-.03088.29625c-.05111-.00467-.09142-.008-.11962-.008h-.09134a1.38616,1.38616,0,0,0-1.04854.4138,1.95348,1.95348,0,0,0-.39427,1.3743V19.0915c-.039.00606-.09142.00943-.15855.0128-.0672.00467-.12092.00605-.15923.00605-.03158,0-.08261-.00138-.1538-.00605-.0712-.00337-.12492-.00674-.16323-.0128Z"/>
    <path class="cls-5" d="M162.37547,18.47424a1.3792,1.3792,0,0,1,.09.26124c.02821.10881.051.19885.06452.26936a3.60907,3.60907,0,0,1-.54951.14375,3.67074,3.67074,0,0,1-.6824.05778,2.397,2.397,0,0,1-1.82842-.65963,2.66555,2.66555,0,0,1-.62338-1.90834,3.24286,3.24286,0,0,1,.1518-1.0156,2.38518,2.38518,0,0,1,.45274-.81213,2.0555,2.0555,0,0,1,.74561-.54277,2.542,2.542,0,0,1,1.03444-.19748,4.21591,4.21591,0,0,1,.69589.0531,3.12053,3.12053,0,0,1,.5253.12024,1.41761,1.41761,0,0,1-.03357.28813,1.60433,1.60433,0,0,1-.07394.25932,2.909,2.909,0,0,0-.48492-.11487,3.86445,3.86445,0,0,0-.62876-.04836,1.781,1.781,0,0,0-.755.14913,1.49859,1.49859,0,0,0-.54.41848,1.77012,1.77012,0,0,0-.31977.63405,2.8441,2.8441,0,0,0-.10744.80876,2.05181,2.05181,0,0,0,.49434,1.52349,1.832,1.832,0,0,0,1.34211.487,3.07426,3.07426,0,0,0,.55351-.04774,2.95194,2.95194,0,0,0,.47694-.1269"/>
    <path class="cls-5" d="M166.51186,16.2065a2.28958,2.28958,0,0,0-.07656-.58844,1.47,1.47,0,0,0-.24047-.50446,1.23271,1.23271,0,0,0-.42315-.35059,1.52854,1.52854,0,0,0-1.67393.27871,1.98737,1.98737,0,0,0-.45143,1.16478Zm-2.88569.52861a1.993,1.993,0,0,0,.45274,1.44288,1.8142,1.8142,0,0,0,1.35421.46009,3.37214,3.37214,0,0,0,.67979-.06246,4.38879,4.38879,0,0,0,.60991-.16659,1.16858,1.16858,0,0,1,.07793.25932,2.80105,2.80105,0,0,1,.03756.27878,2.814,2.814,0,0,1-.6529.19211,4.75611,4.75611,0,0,1-.81681.06713,2.87774,2.87774,0,0,1-1.09352-.18736,1.95343,1.95343,0,0,1-.74968-.52531,2.0932,2.0932,0,0,1-.43258-.8027,3.519,3.519,0,0,1-.141-1.02371,3.81409,3.81409,0,0,1,.13028-1.01023,2.46462,2.46462,0,0,1,.395-.82692,1.84072,1.84072,0,0,1,.67848-.55749,2.23036,2.23036,0,0,1,.99007-.20223,2.15678,2.15678,0,0,1,.85712.16192,1.76178,1.76178,0,0,1,.62875.4581,1.96522,1.96522,0,0,1,.38554.70194,2.95794,2.95794,0,0,1,.129.89068c0,.05778-.00131.12966-.004.221-.00406.09-.00812.1666-.01479.231Z"/>
    <path class="cls-5" d="M168.17505,12.0217a1.4197,1.4197,0,0,1,.15985-.01479c.06721-.00268.11962-.00468.15855-.00468.03226,0,.0833.002.15318.00468a1.41264,1.41264,0,0,1,.16384.01479V17.957a1.02867,1.02867,0,0,0,.05778.3876.45761.45761,0,0,0,.14376.20216.44683.44683,0,0,0,.19211.07862,1.48445,1.48445,0,0,0,.19212.0141,1.81731,1.81731,0,0,0,.22169-.0141c.07655-.01142.141-.02085.19211-.03357a.9636.9636,0,0,1,.06713.24982c.01342.08935.02422.17265.02958.24989a1.36986,1.36986,0,0,1-.30361.06721,2.76907,2.76907,0,0,1-.31166.01877,1.92365,1.92365,0,0,1-.40438-.043.90665.90665,0,0,1-.36008-.16322.84825.84825,0,0,1-.25657-.32844,1.3315,1.3315,0,0,1-.0954-.54346Z"/>
    <path class="cls-5" d="M172.39212,18.64888a1.30858,1.30858,0,0,0,1.14862-.5394,2.50639,2.50639,0,0,0,.38017-1.47108,2.50686,2.50686,0,0,0-.38017-1.4717,1.49533,1.49533,0,0,0-2.29862,0,2.51654,2.51654,0,0,0-.38017,1.4717,2.51607,2.51607,0,0,0,.38017,1.47108,1.311,1.311,0,0,0,1.15.5394m0,.55749a2.23746,2.23746,0,0,1-.962-.19679,1.93668,1.93668,0,0,1-.68783-.54277,2.34357,2.34357,0,0,1-.40837-.8188,3.86328,3.86328,0,0,1,0-2.01984,2.33667,2.33667,0,0,1,.40837-.8175,1.915,1.915,0,0,1,.68783-.54277,2.20859,2.20859,0,0,1,.962-.19748,2.17586,2.17586,0,0,1,.9565.19748,1.90757,1.90757,0,0,1,.68248.54277,2.37173,2.37173,0,0,1,.41511.8175,3.72031,3.72031,0,0,1,0,2.01984,2.37871,2.37871,0,0,1-.41511.8188,1.92928,1.92928,0,0,1-.68248.54277,2.20417,2.20417,0,0,1-.9565.19679"/>
    <path class="cls-5" d="M175.65935,14.186c.051-.00674.1007-.01279.14644-.0141.04966-.00337.09671-.00537.141-.00537.05111,0,.09947.002.14514.00537.0443.00131.09265.00736.14376.0141.012.11556.02283.25794.0282.43258.00667.17127.00935.32507.00935.452a2.22193,2.22193,0,0,1,.24989-.35128,1.9667,1.9667,0,0,1,.36139-.32177,1.91871,1.91871,0,0,1,.47558-.23579,1.832,1.832,0,0,1,.58844-.09135,1.43849,1.43849,0,0,1,1.22924.50515,2.29446,2.29446,0,0,1,.38553,1.41729V19.0915c-.03756.00606-.09135.00943-.15985.0128-.06714.00467-.11955.00605-.1558.00605-.03363,0-.086-.00138-.15449-.00605-.07256-.00337-.12628-.00674-.16529-.0128V16.18566a2.0738,2.0738,0,0,0-.25388-1.17283.87971.87971,0,0,0-.76446-.356,1.54594,1.54594,0,0,0-.63542.133,1.48156,1.48156,0,0,0-.51451.391,1.86124,1.86124,0,0,0-.34123.62937,2.71445,2.71445,0,0,0-.125.85712V19.0915c-.03894.00606-.09135.00943-.15848.0128-.0672.00467-.12092.00605-.15855.00605-.03356,0-.0833-.00138-.15449-.00605-.06988-.00337-.12491-.00674-.16253-.0128Z"/>
    <path class="cls-5" d="M183.49822,16.70622c-.10881-.01472-.24445-.02751-.40836-.04361-.16254-.01616-.3184-.02421-.46615-.02421a1.95929,1.95929,0,0,0-1.11506.26936.87534.87534,0,0,0-.39495.76914.95792.95792,0,0,0,.11954.50913.81334.81334,0,0,0,.313.29488,1.316,1.316,0,0,0,.42316.133,2.98867,2.98867,0,0,0,.46215.03356,5.01457,5.01457,0,0,0,.5575-.02751c.17333-.01885.34261-.04437.50913-.07793Zm0-.85574a1.256,1.256,0,0,0-.29817-.929,1.20913,1.20913,0,0,0-.884-.29351,4.26515,4.26515,0,0,0-.70263.053,4.35054,4.35054,0,0,0-.56691.12965.91661.91661,0,0,1-.08193-.24989,1.50019,1.50019,0,0,1-.03363-.30767,3.87449,3.87449,0,0,1,.61534-.12959,5.28291,5.28291,0,0,1,.751-.0531,2.00934,2.00934,0,0,1,1.38372.40844,1.65217,1.65217,0,0,1,.454,1.28364v3.24234c-.22431.045-.49841.088-.81949.1344a6.78242,6.78242,0,0,1-.91215.06713,2.46762,2.46762,0,0,1-1.41062-.35533,1.30551,1.30551,0,0,1-.51319-1.15537,1.56488,1.56488,0,0,1,.14775-.68852,1.466,1.466,0,0,1,.4138-.50776,1.82633,1.82633,0,0,1,.63542-.31373,3.009,3.009,0,0,1,.81282-.10613c.231,0,.4299.00942.59643.02421.16659.01747.30361.03219.41242.045Z"/>
    <path class="cls-6" d="M149.0711,25.12419l-.79933-2.90447-.83662,2.90447Zm-1.53993-4.36681c.135-.01747.26234-.03357.38492-.04368.12092-.00942.25587-.0141.40369-.0141q.19242,0,.3748.0141c.122.01011.25663.02621.40369.04368l2.165,6.91532a5.32677,5.32677,0,0,1-.76948.05777,4.35738,4.35738,0,0,1-.71233-.05777l-.38525-1.38373H147.108l-.394,1.38373a4.06392,4.06392,0,0,1-.66431.05777,4.27819,4.27819,0,0,1-.7016-.05777Z"/>
    <path class="cls-6" d="M155.04567,26.49986a1.95982,1.95982,0,0,1,.1928.44737,2.11154,2.11154,0,0,1,.07621.60055,3.01645,3.01645,0,0,1-.72106.19879,5.89493,5.89493,0,0,1-.70228.043,2.75657,2.75657,0,0,1-1.08617-.19817,2.09381,2.09381,0,0,1-.76474-.54339,2.29985,2.29985,0,0,1-.45748-.82355,3.54356,3.54356,0,0,1-.004-2.05209,2.35761,2.35761,0,0,1,.45171-.82617,2.086,2.086,0,0,1,.75469-.55955,2.57871,2.57871,0,0,1,1.04923-.20016c.1397,0,.27066.002.38959.008a2.99282,2.99282,0,0,1,.34055.03831,3.02548,3.02548,0,0,1,.32782.07855c.10882.03088.2307.07257.36435.1236a2.45358,2.45358,0,0,1-.05675.49642,2.19523,2.19523,0,0,1-.18337.52392,3.15269,3.15269,0,0,0-.50515-.12966,3.26944,3.26944,0,0,0-.49538-.03556,1.06744,1.06744,0,0,0-.89873.3909,1.77814,1.77814,0,0,0-.30361,1.11169,1.64024,1.64024,0,0,0,.3281,1.13458,1.14112,1.14112,0,0,0,.884.35534c.09671,0,.185-.00137.265-.00474a1.59281,1.59281,0,0,0,.23545-.02415,1.70252,1.70252,0,0,0,.23648-.05709c.07992-.0262.17326-.05984.28277-.09678"/>
    <path class="cls-6" d="M156.27628,23.73978h-.62607l-.04767-.19342,1.79815-2.29862h.22237v1.45292h1.16273a1.92679,1.92679,0,0,1,.03762.25924c.00674.07862.01073.15724.01073.24185,0,.088-.004.17464-.01073.25794a2.15394,2.15394,0,0,1-.03762.28009h-1.16273v1.95339a1.9584,1.9584,0,0,0,.04767.48025.74032.74032,0,0,0,.13839.2882.45478.45478,0,0,0,.22706.14438,1.21767,1.21767,0,0,0,.317.03831,1.68257,1.68257,0,0,0,.28484-.02421c.09134-.0161.17464-.0302.24583-.043a1.991,1.991,0,0,1,.0954.37955,2.70736,2.70736,0,0,1,.02683.35066c0,.07249-.00131.13165-.00268.17794-.00269.04842-.00943.09609-.0161.13977a3.90986,3.90986,0,0,1-.91352.10544,1.95932,1.95932,0,0,1-1.33674-.40843,1.70173,1.70173,0,0,1-.46078-1.33131Z"/>
    <path class="cls-6" d="M159.75172,21.86439a3.55257,3.55257,0,0,1-.05909-.64423,3.65454,3.65454,0,0,1,.05909-.64547,3.44231,3.44231,0,0,1,.35066-.043c.12491-.01011.23909-.01479.34123-.01479.10882,0,.227.00468.356.01479a3.43461,3.43461,0,0,1,.35472.043,2.7645,2.7645,0,0,1,.03893.3217c.00674.10613.00942.213.00942.32377,0,.10283-.00268.20827-.00942.31709a2.76978,2.76978,0,0,1-.03893.32714,3.011,3.011,0,0,1-.35066.03824c-.12491.00674-.24185.00942-.35066.00942-.10208,0-.21763-.00268-.34523-.00942a3.01114,3.01114,0,0,1-.356-.03824m.20153,1.87539h-.64485a1.803,1.803,0,0,1-.04168-.2653,2.05551,2.05551,0,0,1-.01609-.26468,2.23547,2.23547,0,0,1,.05777-.50914h1.98153v4.972a4.11421,4.11421,0,0,1-.673.05777,4.0527,4.0527,0,0,1-.66363-.05777Z"/>
    <path class="cls-6" d="M161.78029,22.71008a2.59641,2.59641,0,0,1,.42721-.05647c.13166-.00605.24453-.01073.34124-.01073.12766,0,.25663.00468.38423.01073a1.88913,1.88913,0,0,1,.35733.047l1.08555,3.70181,1.06938-3.70181c.10881-.01947.2243-.03357.34522-.04368.12223-.00942.24453-.0141.36545-.0141.09671,0,.20683.00468.33181.01073a2.79523,2.79523,0,0,1,.42722.05647l-1.88351,4.96262a3.47421,3.47421,0,0,1-.3856.03831c-.13433.008-.24714.01-.33718.01-.0954,0-.20422-.002-.32644-.01a1.88968,1.88968,0,0,1-.3453-.04636Z"/>
    <path class="cls-6" d="M169.86108,25.39354c-.07663-.01141-.16123-.02414-.24989-.03425a2.32861,2.32861,0,0,0-.24047-.01272,1.39673,1.39673,0,0,0-.74562.16858.58757.58757,0,0,0-.274.5414.62009.62009,0,0,0,.10476.38622.64024.64024,0,0,0,.25525.19686,1.04478,1.04478,0,0,0,.317.07656c.11287.01.20958.01479.29288.01479a1.77854,1.77854,0,0,0,.2902-.02421c.0954-.0161.18-.0302.24989-.043Zm0-.99007a.79632.79632,0,0,0-.07663-.3748.57735.57735,0,0,0-.21357-.22637.90263.90263,0,0,0-.33051-.11219,3.332,3.332,0,0,0-.43794-.0282,3.37339,3.37339,0,0,0-1.10563.20285,2.5387,2.5387,0,0,1-.20154-.47227,1.76049,1.76049,0,0,1-.06713-.52861,4.99257,4.99257,0,0,1,.84631-.21027,4.84436,4.84436,0,0,1,.78861-.06713,2.3324,2.3324,0,0,1,1.56242.47894,1.92253,1.92253,0,0,1,.56293,1.53952V27.49a8.09486,8.09486,0,0,1-.81818.20215,5.58667,5.58667,0,0,1-1.08686.0974,4.438,4.438,0,0,1-.89873-.0866,1.94866,1.94866,0,0,1-.70125-.28951,1.34992,1.34992,0,0,1-.45273-.51925,1.70509,1.70509,0,0,1-.15992-.77856,1.41744,1.41744,0,0,1,.19885-.77513,1.48538,1.48538,0,0,1,.50914-.49978,2.291,2.291,0,0,1,.69726-.26936,3.68956,3.68956,0,0,1,.76845-.08192c.18537,0,.391.01.61665.02889Z"/>
    <path class="cls-6" d="M136.80117,24.14347h-5.65953l-.91592,3.21557a8.46155,8.46155,0,0,0,7.50376.12622Z"/>
    <path class="cls-6" d="M140.66689,25.17729a8.46006,8.46006,0,0,0-4.21335-13.46457Z"/>
    <polygon class="cls-6" points="134.019 14.083 131.95 21.267 135.993 21.267 134.019 14.083"/>
    <path class="cls-6" d="M131.79956,11.69924a8.45973,8.45973,0,0,0-4.25669,13.4841Z"/>
  </g>
</svg>
