<?xml version="1.0" encoding="utf-8"?>
<!-- Generator: Adobe Illustrator 22.1.0, SVG Export Plug-In . SVG Version: 6.00 Build 0)  -->
<svg version="1.1" id="Capa_1" xmlns="http://www.w3.org/2000/svg" xmlns:xlink="http://www.w3.org/1999/xlink" x="0px" y="0px"
	 viewBox="0 0 512 512" style="enable-background:new 0 0 512 512;" xml:space="preserve">
<style type="text/css">
	.st0{fill:#D50283;}
	.st1{fill:#FA7797;}
	.st2{display:none;fill:#D50283;}
</style>
<g>
	<path class="st0" d="M256,504.9c-66.5,0-129-25.9-176-72.9S7.1,322.5,7.1,256S33,127,80,80C127,33,189.5,7.1,256,7.1
		c15.3,0,30.7,1.4,45.7,4.2c3.7,0.7,6.4,3.9,6.5,7.6c0.1,3.7-2.5,7-6.1,7.9c-69.7,16-118.4,77.2-118.4,148.9
		c0,84.2,68.5,152.8,152.8,152.8c71.7,0,132.9-48.7,148.9-118.4c0.8-3.6,4-6.1,7.8-6.1l0.1,0c3.7,0.1,6.9,2.8,7.6,6.5
		c2.8,15,4.2,30.4,4.2,45.7c0,66.5-25.9,129-72.9,176S322.5,504.9,256,504.9z"/>
	<path class="st1" d="M256,14.2c14.9,0,29.8,1.4,44.4,4.1c0.4,0.1,0.7,0.4,0.7,0.8c0,0.4-0.3,0.7-0.6,0.8
		c-73,16.7-123.9,80.8-123.9,155.8c0,88.1,71.7,159.8,159.8,159.8c75,0,139-51,155.8-123.9c0.1-0.4,0.4-0.6,0.9-0.6
		c0.4,0,0.7,0.3,0.8,0.7c2.7,14.6,4.1,29.5,4.1,44.4c0,64.6-25.2,125.3-70.8,171c-45.7,45.7-106.4,70.8-171,70.8
		c-64.6,0-125.3-25.2-171-70.8c-45.7-45.7-70.8-106.4-70.8-171S39.3,130.7,85,85C130.7,39.3,191.4,14.2,256,14.2 M256,0
		C187.6,0,123.3,26.6,75,75C26.6,123.3,0,187.6,0,256s26.6,132.7,75,181c48.4,48.4,112.6,75,181,75s132.7-26.6,181-75
		s75-112.6,75-181c0-15.7-1.5-31.5-4.3-47c-1.3-7-7.3-12.1-14.4-12.3c-0.1,0-0.2,0-0.2,0c-7,0-13.1,4.8-14.7,11.6
		c-15.3,66.5-73.6,112.9-142,112.9c-80.3,0-145.7-65.3-145.7-145.7c0-68.3,46.4-126.7,112.9-142c6.9-1.6,11.8-7.8,11.6-14.9
		C315.1,11.6,310,5.6,303,4.3C287.5,1.5,271.7,0,256,0L256,0z"/>
</g>
<path class="st2" d="M507.7,209c-1.3-7-7.3-12.1-14.4-12.3c-7.1-0.1-13.3,4.7-14.9,11.6c-15.3,66.5-73.6,112.9-142,112.9
	c-40.2,0-76.6-16.3-103-42.7L18,159c-71,232,108,352,238,353c68.4,0.5,132.7-26.6,181-75s75-112.6,75-181
	C512,240.3,510.5,224.5,507.7,209z"/>
</svg>
